<svg width="375" height="567" viewBox="0 0 375 567" fill="none" xmlns="http://www.w3.org/2000/svg">
<path d="M30.7107 -6.00524C31.0711 -5.09213 31.4577 -4.1884 31.7881 -3.26457C40.1129 20.0168 48.4699 43.2868 56.7079 66.5989C57.2016 68.0979 58.0078 69.4751 59.073 70.639C60.1382 71.8028 61.438 72.7267 62.8861 73.3493C77.9199 80.4285 92.9338 87.5502 107.928 94.7145C108.67 95.0675 109.369 95.5123 110.088 95.9143C109.788 96.6832 109.533 97.4733 109.182 98.2179C101.476 114.56 93.7651 130.899 86.0498 147.236C85.6651 148.052 85.3618 148.906 85.0207 149.743C77.5019 146.22 69.9692 142.727 62.4685 139.166C56.0611 136.124 49.6904 133.004 43.3034 129.918C43.0043 128.943 43.7964 128.364 44.2001 127.706C51.003 116.625 51.2435 105.295 44.8575 94.0815C41.1772 87.7285 35.4058 82.854 28.5343 80.2952C21.6629 77.7364 14.1202 77.6528 7.2015 80.0589C4.62814 80.9544 2.3087 82.3606 -0.234347 83.2825C-0.352869 83.0898 -0.45758 82.8889 -0.547683 82.6814C-8.72312 59.7797 -16.8958 36.8771 -25.0658 13.9734C-6.47365 7.31391 12.1185 0.654355 30.7107 -6.00524Z" fill="#FF92A6"/>
<path d="M30.7105 -6.00513C12.1183 0.65444 -6.47382 7.31399 -25.066 13.9735C-27.6101 6.94121 -30.2439 -0.0604203 -32.6626 -7.13556C-33.9821 -10.9952 -32.3781 -14.1534 -28.5006 -15.5866C-20.2963 -18.6192 -12.0499 -21.5383 -3.81421 -24.4856C1.93618 -26.5435 7.69238 -28.5851 13.4544 -30.6104C18.4353 -32.3699 22.0069 -30.6778 23.7857 -25.6746C26.1142 -19.1253 28.404 -12.5622 30.7105 -6.00513Z" fill="#FF5F77"/>
<path d="M-0.234636 83.2826C2.30838 82.3607 4.62786 80.9545 7.20121 80.059C14.1199 77.6529 21.6626 77.7365 28.534 80.2953C35.4055 82.8541 41.1769 87.7286 44.8572 94.0816C51.2432 105.295 51.0026 116.626 44.1998 127.706C43.7961 128.364 43.004 128.943 43.3031 129.918C32.6609 125.377 22.1754 120.552 14.2359 111.712C9.09443 106.117 5.19109 99.4972 2.78232 92.2875C1.801 89.2776 0.429982 86.3983 -0.234636 83.2826Z" fill="#FF5F77"/>
<path d="M85.0205 149.743C85.3617 148.907 85.6649 148.052 86.0497 147.236C93.7569 130.895 101.468 114.556 109.182 98.218C109.533 97.4734 109.788 96.6833 110.088 95.9144C115.751 98.1161 120.446 102.27 123.327 107.628C128.773 117.159 128.99 126.998 123.912 136.761C120.627 143.112 115.113 148.019 108.429 150.538C100.889 153.554 93.4392 153.178 85.9817 150.325C85.6443 150.161 85.3225 149.966 85.0205 149.743Z" fill="#FF5F77"/>
<path d="M-9.28174 -22.4932L0.474032 4.80812" stroke="#C7274C" stroke-width="2" stroke-miterlimit="10"/>
<path d="M-4.58838 -24.1703L5.16739 3.13106" stroke="#C7274C" stroke-width="2" stroke-miterlimit="10"/>
<path d="M0.104736 -25.8474L9.86051 1.454" stroke="#C7274C" stroke-width="2" stroke-miterlimit="10"/>
<path d="M4.7981 -27.5245L14.5539 -0.223126" stroke="#C7274C" stroke-width="2" stroke-miterlimit="10"/>
<path d="M7.90883 24.8212C8.4552 26.3355 8.63108 27.9586 8.42169 29.554C8.10502 32.0304 6.89222 34.303 5.01321 35.9409C3.13421 37.5788 0.719601 38.4682 -1.77284 38.4404C-4.26528 38.4126 -6.6623 37.4696 -8.50947 35.7902C-10.3566 34.1107 -11.5256 31.8116 -11.7946 29.3286C-12.0637 26.8456 -11.4142 24.3514 -9.96926 22.3188C-8.52433 20.2863 -6.38442 18.8566 -3.95521 18.3009C-1.526 17.7452 1.02365 18.102 3.21038 19.3038C5.3971 20.5056 7.0689 22.4688 7.90883 24.8212Z" fill="#F9F9F9"/>
<path d="M7.90916 24.8212C8.45553 26.3355 8.63141 27.9585 8.42202 29.554C7.03535 31.2892 5.11972 32.5218 2.96709 33.0638C0.814461 33.6059 -1.4571 33.4277 -3.50139 32.5564C-5.54567 31.6851 -7.25056 30.1685 -8.35619 28.2377C-9.46183 26.307 -9.90758 24.068 -9.6255 21.8619C-8.49378 20.4462 -7.00496 19.3592 -5.31273 18.7132C-3.6205 18.0672 -1.78617 17.8857 0.00091965 18.1873C1.78801 18.4889 3.4631 19.2627 4.85329 20.4289C6.24349 21.595 7.2984 23.1113 7.90916 24.8212Z" fill="#010002"/>
<path d="M34.7589 26.0618C35.3053 27.5761 35.4812 29.1991 35.2718 30.7946C34.9551 33.271 33.7423 35.5436 31.8633 37.1815C29.9843 38.8194 27.5697 39.7088 25.0772 39.681C22.5848 39.6532 20.1878 38.7102 18.3406 37.0307C16.4935 35.3513 15.3245 33.0521 15.0555 30.5692C14.7864 28.0862 15.4359 25.592 16.8808 23.5594C18.3258 21.5269 20.4657 20.0972 22.8949 19.5415C25.3241 18.9858 27.8737 19.3426 30.0605 20.5444C32.2472 21.7462 33.919 23.7094 34.7589 26.0618L34.7589 26.0618Z" fill="#F9F9F9"/>
<path d="M34.759 26.0617C35.3054 27.576 35.4812 29.1991 35.2718 30.7945C33.8852 32.5297 31.9695 33.7623 29.8169 34.3043C27.6643 34.8464 25.3927 34.6682 23.3484 33.7969C21.3042 32.9256 19.5993 31.409 18.4936 29.4783C17.388 27.5475 16.9423 25.3085 17.2243 23.1025C18.3561 21.6867 19.8449 20.5997 21.5371 19.9538C23.2293 19.3078 25.0637 19.1262 26.8508 19.4278C28.6378 19.7294 30.3129 20.5032 31.7031 21.6694C33.0933 22.8356 34.1482 24.3519 34.759 26.0617Z" fill="#010002"/>
<path d="M16.5556 49.4391C14.6815 50.2481 12.6548 50.6426 10.6135 50.5956C8.57217 50.5487 6.5643 50.0614 4.72668 49.1671C3.32974 48.4739 1.39278 47.0796 -0.268638 47.5379C-0.683563 47.6425 -1.0677 47.8442 -1.38961 48.1263C-1.71152 48.4085 -1.96205 48.7631 -2.12069 49.1611C-2.27934 49.5592 -2.34158 49.9893 -2.30234 50.4164C-2.2631 50.8435 -2.12348 51.2553 -1.89492 51.6182C0.469027 55.2798 4.16154 59.0318 8.76751 59.2966C10.9943 59.3195 13.1914 58.7911 15.1637 57.7584C17.0258 56.8858 18.7931 55.8234 20.4377 54.588C23.0308 52.6396 22.821 47.7985 18.6655 48.5746C18.0572 48.7305 17.4716 48.9646 16.9234 49.2709C16.8017 49.3289 16.6791 49.3849 16.5556 49.4391Z" fill="#F9F9F9"/>
<path d="M410.186 96.8273C409.429 97.3799 408.686 97.9546 407.912 98.4819C388.394 111.771 368.866 125.045 349.328 138.304C348.061 139.12 346.981 140.197 346.161 141.462C345.341 142.727 344.798 144.152 344.57 145.642C341.628 161.259 338.642 176.868 335.612 192.468C335.463 193.24 335.219 193.994 335.02 194.756C334.238 194.663 333.447 194.616 332.675 194.469C315.731 191.252 298.789 188.03 281.847 184.803C281.002 184.642 280.14 184.566 279.285 184.451C280.74 176.645 282.165 168.833 283.659 161.034C284.936 154.372 286.294 147.726 287.616 141.072C288.445 140.562 289.17 141.156 289.874 141.372C301.741 145.015 312.267 142.521 321.099 133.92C326.087 128.989 329.21 122.477 329.929 115.502C330.648 108.526 328.92 101.522 325.041 95.693C323.597 93.525 321.743 91.7146 320.282 89.581C320.432 89.4251 320.593 89.28 320.763 89.1468C339.965 76.0869 359.17 63.0293 378.375 49.974C388.979 65.5918 399.583 81.2095 410.186 96.8273Z" fill="#C7274C"/>
<path d="M410.186 96.8273C399.583 81.2096 388.979 65.5918 378.375 49.974C384.264 45.9325 390.102 41.8153 396.06 37.8797C399.311 35.7328 402.613 36.4608 404.865 39.7073C409.631 46.5766 414.302 53.512 418.997 60.4308C422.274 65.2617 425.539 70.1019 428.789 74.9514C431.607 79.1413 430.899 82.8539 426.702 85.7003C421.208 89.4263 415.692 93.1199 410.186 96.8273Z" fill="#FF5F77"/>
<path d="M320.282 89.5811C321.743 91.7147 323.597 93.5252 325.041 95.6931C328.92 101.522 330.648 108.526 329.929 115.502C329.21 122.477 326.088 128.99 321.099 133.92C312.267 142.521 301.741 145.015 289.874 141.373C289.17 141.156 288.445 140.562 287.616 141.073C289.265 130.13 291.213 119.265 297.479 109.795C301.418 103.693 306.6 98.492 312.685 94.5333C315.231 92.9031 317.563 90.9435 320.282 89.5811Z" fill="#C7274C"/>
<path d="M279.285 184.451C280.14 184.566 281.002 184.642 281.848 184.803C298.791 188.021 315.733 191.243 332.675 194.469C333.447 194.616 334.238 194.663 335.02 194.756C334.342 200.527 331.628 205.87 327.367 209.822C319.864 217.15 310.826 219.708 300.589 217.348C293.935 215.829 288.082 211.899 284.154 206.315C279.562 200.057 278.127 193.069 278.978 185.48C279.049 185.128 279.152 184.784 279.285 184.451Z" fill="#C7274C"/>
<path d="M355.477 109.895C353.729 109.03 352.188 107.798 350.96 106.283C349.732 104.767 348.845 103.003 348.36 101.112C348.001 99.6658 347.818 97.3929 346.457 96.4663C346.124 96.2288 345.74 96.0738 345.335 96.0138C344.931 95.9538 344.517 95.9907 344.129 96.1213C343.741 96.2519 343.39 96.4726 343.103 96.7653C342.816 97.058 342.602 97.4144 342.479 97.8053C341.275 101.791 340.826 106.801 343.481 110.319C344.842 111.955 346.585 113.228 348.557 114.026C350.344 114.843 352.211 115.473 354.128 115.906C357.15 116.59 360.546 113.443 357.411 110.897C356.922 110.55 356.389 110.269 355.827 110.059C355.709 110.006 355.593 109.951 355.477 109.895Z" fill="#010002"/>
<path d="M362.105 72.8851C362.066 73.0658 362.966 73.9298 363.076 74.0639C363.908 75.0731 364.739 76.0821 365.571 77.0908C367.746 79.7272 369.919 82.3652 372.09 85.0048C374.548 87.8784 376.903 90.8484 379.307 93.7676C380.531 95.2542 381.732 96.7646 382.982 98.2297C383.849 99.2455 384.804 101.127 386.081 101.603C386.419 101.711 386.771 101.77 387.126 101.775C390.846 102.007 394.629 101.839 398.249 102.722C399.516 102.945 400.686 103.542 401.611 104.435C403.464 106.498 401.747 109.148 399.763 110.317C399.131 110.739 398.389 110.966 397.63 110.971C397.252 110.965 396.885 110.841 396.581 110.616C396.277 110.391 396.051 110.077 395.934 109.717C395.883 109.398 395.913 109.072 396.023 108.768C396.133 108.465 396.318 108.194 396.561 107.982C397.053 107.565 397.612 107.235 398.216 107.009C398.033 106.071 396.806 105.86 395.851 105.859C393.625 105.951 391.396 105.894 389.178 105.688C387.488 105.458 385.804 104.994 384.118 105.549C381.638 106.365 379.982 107.215 377.256 107.221C375.615 107.225 372.783 107.308 371.146 107.199C368.192 107.004 366.624 106.432 365.586 103.285C365.077 101.57 365.131 99.7365 365.739 98.0524C366.511 95.8526 367.418 93.7026 368.456 91.6149C367.268 91.4474 364.708 92.6023 361.565 92.0123C359.199 91.5295 356.979 90.5043 355.078 89.0173C353.247 87.7241 352.822 84.6578 352.985 83.8366C353.521 81.4852 354.459 79.2432 355.757 77.2096C357.006 75.15 358.364 73.2525 359.482 71.1067C360.248 69.4172 360.854 67.6596 361.292 65.857C361.856 64.4727 362.09 62.9767 361.977 61.4874C361.719 60.0217 360.344 58.6303 358.895 58.9666C358.823 58.5554 358.85 58.1328 358.974 57.7338C359.097 57.3347 359.313 56.9704 359.604 56.6709C359.974 56.2783 360.467 56.0237 361 55.9493C361.533 55.875 362.076 55.9853 362.537 56.2621C363.114 56.6466 363.589 57.1641 363.924 57.7712C365.004 59.5699 365.355 61.7154 364.905 63.768C364.176 66.8658 362.779 69.7616 362.105 72.8851Z" fill="black"/>
<path d="M-19.8481 388.594C-19.5103 389.468 -19.1474 390.334 -18.8385 391.219C-11.0537 413.511 -3.28626 435.809 4.4637 458.113C4.92447 459.549 5.68501 460.87 6.69484 461.99C7.70467 463.11 8.94068 464.002 10.3208 464.609C24.644 471.492 38.9479 478.416 53.2324 485.381C53.9396 485.724 54.6046 486.155 55.2893 486.544C54.9967 487.276 54.7466 488.028 54.4051 488.736C46.9122 504.269 39.4148 519.8 31.9132 535.329C31.5391 536.105 31.2426 536.918 30.91 537.713C23.7464 534.287 16.5694 530.89 9.42345 527.427C3.31904 524.47 -2.74965 521.438 -8.83412 518.439C-9.11283 517.506 -8.35093 516.96 -7.95992 516.335C-1.37052 505.816 -1.05473 495.003 -7.07677 484.246C-10.5482 478.151 -16.0305 473.45 -22.5823 470.95C-29.1341 468.449 -36.3465 468.306 -42.9811 470.545C-45.4487 471.378 -47.6775 472.7 -50.1163 473.559C-50.2282 473.374 -50.3268 473.181 -50.4114 472.982C-58.0563 451.054 -65.6985 429.124 -73.3381 407.194C-55.5082 400.994 -37.6781 394.794 -19.8481 388.594Z" fill="#C7274C"/>
<path d="M-50.1161 473.559C-47.6772 472.7 -45.4485 471.378 -42.9808 470.544C-36.3463 468.306 -29.1338 468.449 -22.5821 470.949C-16.0303 473.45 -10.548 478.151 -7.07653 484.246C-1.05447 495.003 -1.37028 505.816 -7.95967 516.335C-8.35069 516.96 -9.11256 517.506 -8.83388 518.439C-18.9767 514.014 -28.9674 509.321 -36.4931 500.817C-41.3675 495.433 -45.0502 489.081 -47.2991 482.179C-48.2148 479.298 -49.5041 476.538 -50.1161 473.559Z" fill="#C7274C"/>
<path d="M30.91 537.713C31.2426 536.918 31.5391 536.105 31.9132 535.329C39.4072 519.796 46.9046 504.265 54.4052 488.736C54.7466 488.028 54.9967 487.276 55.2893 486.544C60.6879 488.694 65.1463 492.698 67.8616 497.836C72.9971 506.98 73.1296 516.373 68.2004 525.649C65.0105 531.684 59.7 536.321 53.2897 538.669C46.0562 541.485 38.9348 541.063 31.8248 538.277C31.5034 538.117 31.1972 537.928 30.91 537.713Z" fill="#FFDB29"/>
<path d="M-55.4188 428.84C-55.2544 428.924 -54.187 428.279 -54.0288 428.207C-52.8389 427.665 -51.649 427.123 -50.4593 426.58C-47.3499 425.162 -44.2394 423.746 -41.1279 422.332C-37.7159 420.701 -34.2377 419.196 -30.7957 417.629C-29.0429 416.831 -27.2731 416.062 -25.5344 415.234C-24.329 414.66 -22.2646 414.223 -21.474 413.113C-21.2818 412.815 -21.1346 412.49 -21.037 412.149C-19.8504 408.615 -19.0339 404.918 -17.2438 401.65C-16.7006 400.484 -15.8214 399.508 -14.7189 398.846C-12.2465 397.59 -10.1316 399.934 -9.51601 402.153C-9.27216 402.873 -9.24434 403.648 -9.43598 404.383C-9.53969 404.747 -9.75451 405.069 -10.0504 405.304C-10.3464 405.54 -10.7086 405.676 -11.0867 405.696C-11.4075 405.663 -11.7149 405.55 -11.9797 405.365C-12.2444 405.18 -12.4578 404.931 -12.5994 404.641C-12.8757 404.059 -13.049 403.433 -13.1116 402.792C-14.065 402.725 -14.5864 403.856 -14.8345 404.779C-15.322 406.952 -15.9541 409.091 -16.7267 411.179C-17.3865 412.752 -18.2699 414.259 -18.1705 416.032C-18.0241 418.638 -17.6317 420.457 -18.3315 423.092C-18.7525 424.678 -19.4053 427.435 -19.9337 428.988C-20.8876 431.791 -21.8449 433.157 -25.154 433.345C-26.9418 433.393 -28.6993 432.867 -30.1685 431.844C-32.0937 430.529 -33.9355 429.096 -35.6836 427.553C-36.1527 428.657 -35.6998 431.429 -37.0832 434.312C-38.1618 436.472 -39.7267 438.352 -41.6552 439.803C-43.3782 441.237 -46.4498 440.853 -47.201 440.484C-49.3334 439.357 -51.2562 437.871 -52.8846 436.091C-54.5508 434.351 -56.0323 432.549 -57.8156 430.914C-59.2491 429.736 -60.7901 428.696 -62.418 427.806C-63.6092 426.904 -64.9934 426.29 -66.4613 426.013C-67.9438 425.883 -69.6438 426.852 -69.694 428.339C-70.1097 428.301 -70.5109 428.166 -70.8644 427.943C-71.218 427.721 -71.5139 427.418 -71.7278 427.059C-72.0113 426.6 -72.1298 426.058 -72.0635 425.524C-71.9973 424.989 -71.7503 424.494 -71.3635 424.12C-70.843 423.663 -70.22 423.337 -69.5469 423.171C-67.5301 422.593 -65.3668 422.81 -63.5006 423.776C-60.6971 425.282 -58.2615 427.381 -55.4188 428.84Z" fill="black"/>
<path d="M133.238 300.132C133.053 300.925 132.891 301.724 132.68 302.511C127.374 322.33 122.096 342.157 116.715 361.956C116.345 363.212 116.247 364.533 116.429 365.831C116.611 367.129 117.068 368.375 117.771 369.486C124.773 381.435 131.74 393.404 138.674 405.392C139.018 405.984 139.289 406.619 139.594 407.233C139.022 407.616 138.472 408.034 137.877 408.375C124.816 415.868 111.753 423.357 98.6875 430.843C98.0355 431.217 97.4213 431.656 96.7895 432.064C93.2793 426.1 89.7457 420.15 86.2662 414.168C83.2939 409.059 80.3838 403.913 77.4463 398.784C77.7026 397.977 78.5232 397.957 79.1133 397.7C89.0566 393.367 94.5964 385.754 95.5146 375.083C95.9919 369.007 94.3269 362.949 90.8057 357.949C87.2844 352.949 82.1266 349.319 76.2179 347.682C74.02 347.074 71.7548 346.934 69.5652 346.358C69.5749 346.17 69.598 345.984 69.6344 345.8C74.8633 326.31 80.0945 306.821 85.3281 287.333C101.298 291.599 117.268 295.865 133.238 300.132Z" fill="#FFFF63"/>
<path d="M133.239 300.132C117.269 295.865 101.299 291.599 85.3289 287.333C86.9113 281.332 88.4173 275.31 90.1064 269.34C91.0278 266.083 93.631 264.689 96.9826 265.549C104.074 267.367 111.141 269.283 118.214 271.175C123.153 272.496 128.087 273.83 133.018 275.179C137.285 276.338 138.944 279.184 137.796 283.439C136.294 289.008 134.759 294.568 133.239 300.132Z" fill="#FFDB29"/>
<path d="M69.5651 346.358C71.7547 346.934 74.0199 347.074 76.2179 347.682C82.1266 349.319 87.2844 352.949 90.8056 357.949C94.3269 362.949 95.9918 369.007 95.5146 375.083C94.5963 385.754 89.0565 393.367 79.1132 397.7C78.5232 397.957 77.7025 397.977 77.4462 398.784C72.2672 390.645 67.3305 382.388 66.0521 372.599C65.163 366.348 65.6132 359.985 67.373 353.928C68.1244 351.41 68.5453 348.797 69.5651 346.358Z" fill="#C7274C"/>
<path d="M96.7892 432.064C97.421 431.656 98.0351 431.217 98.6872 430.843C111.749 423.351 124.812 415.861 137.876 408.375C138.471 408.034 139.022 407.616 139.593 407.233C142.451 411.417 143.716 416.474 143.161 421.493C142.392 430.572 137.875 437.383 129.745 441.636C124.469 444.41 118.342 445.144 112.542 443.696C105.916 442.181 100.961 438.395 97.1755 432.916C97.0209 432.645 96.8916 432.359 96.7892 432.064Z" fill="#C7274C"/>
<path d="M97.3833 265.625L91.1566 288.863" stroke="#C7274C" stroke-width="2" stroke-miterlimit="10"/>
<path d="M101.413 266.704L95.1859 289.943" stroke="#C7274C" stroke-width="2" stroke-miterlimit="10"/>
<path d="M105.442 267.784L99.2152 291.022" stroke="#C7274C" stroke-width="2" stroke-miterlimit="10"/>
<path d="M109.471 268.864L103.244 292.102" stroke="#C7274C" stroke-width="2" stroke-miterlimit="10"/>
<path d="M113.501 269.943L107.274 293.182" stroke="#C7274C" stroke-width="2" stroke-miterlimit="10"/>
<path d="M117.53 271.023L111.304 294.261" stroke="#C7274C" stroke-width="2" stroke-miterlimit="10"/>
<path d="M121.56 272.103L115.333 295.341" stroke="#C7274C" stroke-width="2" stroke-miterlimit="10"/>
<path d="M125.589 273.182L119.362 296.421" stroke="#C7274C" stroke-width="2" stroke-miterlimit="10"/>
<path d="M129.618 274.262L123.391 297.501" stroke="#C7274C" stroke-width="2" stroke-miterlimit="10"/>
<path d="M133.648 275.342L127.421 298.58" stroke="#C7274C" stroke-width="2" stroke-miterlimit="10"/>
<path d="M87.2094 287.806L93.144 265.658" stroke="#C7274C" stroke-width="2" stroke-miterlimit="10"/>
<path d="M102.905 310.35C102.563 311.642 101.914 312.832 101.013 313.821C99.6205 315.359 97.7069 316.335 95.6353 316.561C93.5637 316.788 91.478 316.251 89.7737 315.051C88.0694 313.851 86.865 312.073 86.3887 310.053C85.9125 308.032 86.1975 305.911 87.1898 304.09C88.1821 302.27 89.8126 300.876 91.7723 300.175C93.732 299.473 95.8847 299.512 97.8221 300.284C99.7596 301.056 101.347 302.507 102.284 304.362C103.221 306.218 103.442 308.348 102.905 310.35Z" fill="#0F0F0F"/>
<path d="M102.905 310.351C102.563 311.642 101.915 312.832 101.014 313.821C99.2352 314.347 97.3306 314.28 95.5901 313.63C93.8497 312.98 92.369 311.782 91.3736 310.22C90.3782 308.657 89.9227 306.815 90.0766 304.975C90.2305 303.135 90.9854 301.397 92.2261 300.026C93.6774 299.597 95.2189 299.561 96.6913 299.922C98.1638 300.283 99.5139 301.028 100.602 302.081C101.691 303.133 102.478 304.454 102.883 305.908C103.287 307.362 103.295 308.895 102.905 310.351Z" fill="#010002"/>
<path d="M120.818 323.916C120.476 325.207 119.828 326.397 118.927 327.386C117.534 328.925 115.62 329.9 113.549 330.127C111.477 330.353 109.391 329.816 107.687 328.616C105.983 327.417 104.778 325.638 104.302 323.618C103.826 321.598 104.111 319.476 105.103 317.656C106.095 315.835 107.726 314.442 109.686 313.74C111.645 313.039 113.798 313.078 115.735 313.849C117.673 314.621 119.261 316.072 120.197 317.928C121.134 319.783 121.355 321.914 120.818 323.916L120.818 323.916Z" fill="#0F0F0F"/>
<path d="M120.818 323.916C120.477 325.207 119.828 326.397 118.927 327.386C117.148 327.912 115.244 327.845 113.503 327.195C111.763 326.545 110.282 325.348 109.287 323.785C108.292 322.223 107.836 320.381 107.99 318.54C108.144 316.7 108.899 314.962 110.139 313.591C111.591 313.162 113.132 313.126 114.605 313.487C116.077 313.849 117.427 314.594 118.516 315.646C119.604 316.698 120.391 318.019 120.796 319.473C121.201 320.927 121.209 322.461 120.818 323.916Z" fill="#010002"/>
<path d="M97.1868 331.234C95.5117 330.898 93.9281 330.206 92.5437 329.207C91.1594 328.208 90.0069 326.925 89.1649 325.445C88.5311 324.31 87.8577 322.442 86.4955 321.967C86.1599 321.842 85.7996 321.798 85.4439 321.837C85.0883 321.877 84.7475 322.001 84.4494 322.197C84.1513 322.393 83.9043 322.657 83.7288 322.967C83.5533 323.277 83.4542 323.624 83.4395 323.979C83.3318 327.596 84.0966 331.904 87.1448 334.266C88.6683 335.337 90.4329 336.017 92.2818 336.247C93.9788 336.534 95.7005 336.647 97.4197 336.584C100.131 336.484 102.282 333.083 99.0507 331.644C98.5576 331.462 98.0431 331.344 97.52 331.293C97.4086 331.275 97.2976 331.255 97.1868 331.234Z" fill="#0F0F0F"/>
<path d="M131.329 299.628L131.33 299.621L137.187 277.764" stroke="#C7274C" stroke-width="2" stroke-miterlimit="10"/>
<path d="M85.7584 302.516C85.7983 302.697 86.9762 303.107 87.1325 303.183C88.3089 303.754 89.4855 304.324 90.6622 304.894C93.738 306.384 96.8127 307.876 99.8863 309.371C103.319 310.958 106.697 312.676 110.099 314.327C111.832 315.168 113.553 316.041 115.3 316.851C116.511 317.413 118.164 318.725 119.523 318.625C119.876 318.583 120.22 318.489 120.545 318.347C124.023 317.007 127.391 315.277 131.05 314.571C132.294 314.245 133.607 314.3 134.82 314.727C137.365 315.829 136.908 318.953 135.592 320.843C135.193 321.49 134.614 322.006 133.926 322.327C133.58 322.479 133.195 322.519 132.824 322.441C132.454 322.364 132.118 322.172 131.862 321.893C131.682 321.626 131.574 321.316 131.547 320.994C131.52 320.673 131.576 320.35 131.709 320.056C131.981 319.471 132.353 318.939 132.807 318.481C132.249 317.705 131.046 318.025 130.177 318.422C128.193 319.433 126.143 320.31 124.041 321.048C122.409 321.543 120.685 321.824 119.383 323.031C117.469 324.807 116.319 326.269 113.843 327.411C112.354 328.099 109.814 329.355 108.281 329.938C105.514 330.992 103.851 331.126 101.595 328.698C100.417 327.352 99.7017 325.662 99.5527 323.878C99.3371 321.557 99.2656 319.224 99.3386 316.894C98.1893 317.237 96.3435 319.354 93.2406 320.128C90.8891 320.675 88.4435 320.669 86.0953 320.11C83.8922 319.697 82.2282 317.087 82.0335 316.273C81.541 313.912 81.459 311.483 81.791 309.093C82.0679 306.701 82.5107 304.41 82.6326 301.993C82.625 300.138 82.4432 298.288 82.0895 296.467C82.0249 294.974 81.6146 293.516 80.891 292.209C80.0456 290.985 78.2153 290.293 77.0382 291.203C76.8018 290.859 76.6503 290.464 76.5961 290.05C76.5419 289.635 76.5865 289.214 76.7264 288.821C76.8988 288.31 77.2403 287.873 77.6942 287.583C78.1482 287.293 78.6872 287.167 79.2221 287.226C79.9063 287.335 80.5542 287.608 81.1115 288.02C82.843 289.205 84.0564 291.009 84.503 293.062C85.1314 296.182 85.0688 299.396 85.7584 302.516Z" fill="black"/>
<path d="M210.788 160.128C210.888 161.06 211.014 161.99 211.083 162.924C212.833 186.472 214.565 210.021 216.278 233.571C216.352 235.076 216.744 236.549 217.43 237.892C218.115 239.235 219.078 240.418 220.254 241.361C232.308 251.717 244.332 262.107 256.328 272.531C256.922 273.046 257.453 273.634 258.013 274.188C257.541 274.818 257.105 275.48 256.592 276.075C245.334 289.14 234.073 302.201 222.807 315.26C222.245 315.912 221.748 316.62 221.221 317.303C215.188 312.14 209.135 307 203.129 301.806C197.998 297.37 192.921 292.871 187.82 288.399C187.792 287.426 188.67 287.095 189.209 286.593C198.296 278.138 201.4 267.775 198.367 255.826C196.592 249.04 192.513 243.08 186.831 238.969C181.15 234.859 174.22 232.854 167.233 233.299C164.633 233.465 162.138 234.165 159.56 234.363C159.5 234.156 159.455 233.944 159.424 233.73C157.715 210.57 156.009 187.41 154.306 164.25C173.133 162.876 191.96 161.502 210.788 160.128Z" fill="#FFDB29"/>
<path d="M210.788 160.128C191.961 161.502 173.133 162.876 154.306 164.25C153.75 157.13 153.104 150.015 152.675 142.887C152.441 138.999 154.722 136.503 158.66 136.176C166.992 135.483 175.333 134.906 183.673 134.299C189.495 133.876 195.319 133.469 201.144 133.079C206.182 132.733 209.043 135.203 209.409 140.261C209.889 146.882 210.33 153.505 210.788 160.128Z" fill="#C8AA00"/>
<path d="M159.56 234.363C162.138 234.165 164.634 233.465 167.233 233.299C174.221 232.854 181.15 234.859 186.832 238.969C192.513 243.08 196.592 249.04 198.367 255.826C201.4 267.775 198.296 278.138 189.209 286.593C188.67 287.095 187.792 287.426 187.82 288.399C179.168 281.5 170.733 274.381 165.664 264.218C162.349 257.756 160.436 250.668 160.05 243.419C159.911 240.399 159.38 237.4 159.56 234.363Z" fill="#FFDB29"/>
<path d="M221.221 317.303C221.749 316.621 222.245 315.912 222.807 315.26C234.066 302.196 245.328 289.134 256.592 276.075C257.105 275.48 257.541 274.818 258.013 274.188C262.672 277.661 265.942 282.683 267.235 288.349C269.829 298.51 267.526 307.617 260.363 315.302C255.72 320.305 249.391 323.409 242.591 324.019C234.875 324.866 228.106 322.616 221.959 318.084C221.69 317.847 221.443 317.585 221.221 317.303Z" fill="#FFDB29"/>
<path d="M159.121 136.107L161.167 163.719" stroke="#FFDB29" stroke-width="2" stroke-miterlimit="10"/>
<path d="M163.873 135.764L165.919 163.376" stroke="#FFDB29" stroke-width="2" stroke-miterlimit="10"/>
<path d="M168.624 135.421L170.67 163.033" stroke="#FFDB29" stroke-width="2" stroke-miterlimit="10"/>
<path d="M173.376 135.078L175.422 162.69" stroke="#FFDB29" stroke-width="2" stroke-miterlimit="10"/>
<path d="M178.127 134.735L180.174 162.346" stroke="#FFDB29" stroke-width="2" stroke-miterlimit="10"/>
<path d="M182.879 134.392L184.925 162.003" stroke="#FFDB29" stroke-width="2" stroke-miterlimit="10"/>
<path d="M187.63 134.048L189.677 161.66" stroke="#FFDB29" stroke-width="2" stroke-miterlimit="10"/>
<path d="M192.382 133.705L194.428 161.317" stroke="#FFDB29" stroke-width="2" stroke-miterlimit="10"/>
<path d="M197.134 133.362L199.18 160.974" stroke="#FFDB29" stroke-width="2" stroke-miterlimit="10"/>
<path d="M201.885 133.019L203.931 160.631" stroke="#FFDB29" stroke-width="2" stroke-miterlimit="10"/>
<path d="M208.54 160.299L208.539 160.291L206.614 134.32" stroke="#FFDB29" stroke-width="2" stroke-miterlimit="10"/>
<path d="M156.513 164.056L154.563 137.74" stroke="#FFDB29" stroke-width="2" stroke-miterlimit="10"/>
<path d="M194.75 214.041C193.127 215.123 191.289 215.841 189.363 216.147C187.436 216.453 185.465 216.339 183.585 215.813C182.153 215.401 180.093 214.423 178.61 215.138C178.238 215.308 177.912 215.563 177.657 215.884C177.403 216.204 177.229 216.58 177.148 216.982C177.067 217.383 177.082 217.798 177.192 218.193C177.302 218.587 177.504 218.951 177.781 219.252C180.631 222.289 184.745 225.182 189.119 224.642C191.216 224.282 193.191 223.408 194.868 222.099C196.468 220.96 197.947 219.658 199.281 218.215C201.385 215.939 200.357 211.425 196.585 212.867C196.04 213.118 195.529 213.438 195.067 213.82C194.962 213.895 194.856 213.969 194.75 214.041Z" fill="#010002"/>
<path d="M166.012 189.796C166.149 189.92 167.348 189.573 167.519 189.545C168.809 189.329 170.098 189.113 171.388 188.897C174.758 188.332 178.129 187.769 181.501 187.209C185.219 186.517 188.968 185.963 192.698 185.34C194.598 185.023 196.506 184.738 198.4 184.388C199.713 184.146 201.82 184.259 202.871 183.391C203.134 183.153 203.36 182.877 203.543 182.573C205.603 179.466 207.349 176.107 209.924 173.413C210.75 172.428 211.852 171.712 213.089 171.358C215.802 170.785 217.238 173.597 217.258 175.899C217.307 176.658 217.134 177.414 216.758 178.074C216.564 178.398 216.273 178.654 215.926 178.805C215.58 178.955 215.194 178.994 214.824 178.915C214.523 178.8 214.255 178.611 214.047 178.364C213.839 178.117 213.698 177.821 213.636 177.505C213.52 176.87 213.514 176.221 213.62 175.585C212.716 175.275 211.92 176.232 211.441 177.059C210.408 179.032 209.244 180.934 207.957 182.752C206.913 184.1 205.669 185.327 205.307 187.065C204.773 189.62 204.682 191.479 203.324 193.843C202.507 195.266 201.162 197.76 200.25 199.123C198.603 201.584 197.325 202.656 194.08 201.981C192.341 201.565 190.779 200.602 189.625 199.233C188.106 197.464 186.697 195.604 185.408 193.661C184.669 194.606 184.389 197.401 182.307 199.828C180.706 201.635 178.708 203.045 176.47 203.948C174.434 204.887 171.567 203.721 170.937 203.17C169.168 201.53 167.696 199.597 166.584 197.456C165.425 195.344 164.46 193.22 163.161 191.179C162.081 189.67 160.862 188.267 159.519 186.986C158.602 185.806 157.424 184.855 156.078 184.208C154.68 183.698 152.787 184.194 152.353 185.617C151.962 185.474 151.609 185.239 151.325 184.932C151.041 184.626 150.834 184.257 150.72 183.855C150.565 183.338 150.591 182.784 150.793 182.285C150.995 181.786 151.362 181.371 151.833 181.11C152.454 180.803 153.14 180.65 153.833 180.664C155.931 180.628 157.964 181.397 159.517 182.813C161.835 184.993 163.644 187.651 166.012 189.796Z" fill="#C7274C"/>
<path d="M211.5 -46L223.052 -15.844L249.075 -34.9671L242.49 -3.35256L274.719 -5.37135L252.088 17.6644L280.293 33.3909L248.799 40.5341L264.025 69.0128L233.669 57.9956L231.08 90.1848L211.5 64.505L191.92 90.1848L189.331 57.9956L158.975 69.0128L174.201 40.5341L142.707 33.3909L170.912 17.6644L148.281 -5.37135L180.51 -3.35256L173.925 -34.9671L199.948 -15.844L211.5 -46Z" fill="#0F0F0F"/>
<path d="M198 348L204.593 355.548L214.219 352.762L215.685 362.676L225.289 365.538L221.162 374.67L227.695 382.269L219.285 387.721L220.672 397.646L210.651 397.685L206.452 406.785L198 401.4L189.548 406.785L185.349 397.685L175.328 397.646L176.715 387.721L168.305 382.269L174.838 374.67L170.711 365.538L180.315 362.676L181.781 352.762L191.407 355.548L198 348Z" fill="#FF5F77"/>
<path d="M18.5 186L24.1206 219.358L46.8836 194.334L33.5772 225.436L66.2557 216.691L38.2469 235.661L70.4656 245.972L36.6472 246.788L58.1768 272.88L29.2858 255.283L33.291 288.873L18.5 258.45L3.70904 288.873L7.71422 255.283L-21.1769 272.88L0.352844 246.788L-33.4656 245.972L-1.24694 235.661L-29.2557 216.691L3.4228 225.436L-9.88364 194.334L12.8794 219.358L18.5 186Z" fill="#C7274C"/>
<path d="M317.5 246L321.684 259.252L332.368 250.366L328.723 263.775L342.515 262.076L332.199 271.387L344.72 277.414L331.008 279.669L338.283 291.509L325.529 285.993L325.248 299.886L317.5 288.35L309.752 299.886L309.471 285.993L296.717 291.509L303.992 279.669L290.28 277.414L302.801 271.387L292.485 262.076L306.277 263.775L302.632 250.366L313.316 259.252L317.5 246Z" fill="#FFDB29"/>
<path d="M391.688 505.037C391.169 504.203 390.627 503.384 390.136 502.534C377.769 481.124 365.372 459.731 353.085 438.276C352.331 436.89 351.291 435.679 350.034 434.726C348.777 433.772 347.333 433.096 345.796 432.743C329.736 428.477 313.688 424.164 297.652 419.807C296.858 419.593 296.091 419.28 295.312 419.014C295.469 418.204 295.578 417.381 295.79 416.585C300.439 399.126 305.093 381.668 309.751 364.212C309.983 363.34 310.128 362.445 310.314 361.561C318.343 363.678 326.38 365.763 334.398 367.92C341.247 369.763 348.074 371.689 354.911 373.579C355.38 374.484 354.705 375.197 354.426 375.916C349.722 388.037 351.518 399.227 359.812 409.113C364.573 414.702 371.125 418.462 378.344 419.747C385.563 421.031 392.999 419.76 399.373 416.151C401.744 414.809 403.774 413.009 406.11 411.646C406.261 411.814 406.4 411.993 406.526 412.181C418.678 433.244 430.828 454.309 442.974 475.375C425.879 485.262 408.783 495.15 391.688 505.037Z" fill="#FF92A6"/>
<path d="M406.11 411.646C403.774 413.009 401.744 414.809 399.374 416.151C392.999 419.76 385.564 421.031 378.344 419.747C371.125 418.462 364.573 414.702 359.813 409.113C351.518 399.227 349.722 388.037 354.426 375.916C354.705 375.196 355.381 374.484 354.911 373.579C366.196 376.137 377.377 379.003 386.774 386.274C392.836 390.856 397.863 396.668 401.527 403.328C403.032 406.113 404.897 408.7 406.11 411.646Z" fill="#FF5F77"/>
<path d="M310.314 361.561C310.128 362.445 309.983 363.34 309.751 364.212C305.101 381.67 300.447 399.128 295.79 416.585C295.578 417.381 295.468 418.204 295.311 419.014C289.345 417.864 283.981 414.62 280.185 409.866C273.117 401.466 271.139 391.826 274.382 381.31C276.475 374.473 281.019 368.656 287.142 364.979C294.019 360.659 301.415 359.692 309.264 361.161C309.625 361.262 309.977 361.396 310.314 361.561Z" fill="#FF5F77"/>
</svg>
