<svg width="576" height="617" viewBox="0 0 576 617" fill="none" xmlns="http://www.w3.org/2000/svg">
<path d="M148.711 43.9948C149.071 44.9079 149.458 45.8116 149.788 46.7355C158.113 70.0168 166.47 93.2869 174.708 116.599C175.202 118.098 176.008 119.475 177.073 120.639C178.138 121.803 179.438 122.727 180.886 123.349C195.92 130.429 210.934 137.55 225.928 144.715C226.67 145.068 227.369 145.512 228.088 145.914C227.788 146.683 227.533 147.473 227.182 148.218C219.476 164.56 211.765 180.899 204.05 197.236C203.665 198.052 203.362 198.906 203.021 199.743C195.502 196.22 187.969 192.727 180.469 189.166C174.061 186.124 167.69 183.004 161.303 179.918C161.004 178.943 161.796 178.364 162.2 177.706C169.003 166.625 169.244 155.295 162.858 144.082C159.177 137.729 153.406 132.854 146.534 130.295C139.663 127.736 132.12 127.653 125.201 130.059C122.628 130.954 120.309 132.361 117.766 133.283C117.647 133.09 117.542 132.889 117.452 132.681C109.277 109.78 101.104 86.8771 92.9342 63.9735C111.526 57.314 130.118 50.6544 148.711 43.9948Z" fill="#FF92A6"/>
<path d="M148.71 43.9949C130.118 50.6544 111.526 57.314 92.934 63.9735C90.3899 56.9412 87.7561 49.9396 85.3374 42.8644C84.0179 39.0048 85.6219 35.8466 89.4994 34.4134C97.7037 31.3808 105.95 28.4617 114.186 25.5144C119.936 23.4565 125.692 21.4149 131.454 19.3896C136.435 17.6301 140.007 19.3222 141.786 24.3254C144.114 30.8747 146.404 37.4378 148.71 43.9949Z" fill="#FF5F77"/>
<path d="M117.765 133.283C120.308 132.361 122.628 130.955 125.201 130.059C132.12 127.653 139.663 127.737 146.534 130.295C153.405 132.854 159.177 137.729 162.857 144.082C169.243 155.295 169.003 166.626 162.2 177.706C161.796 178.364 161.004 178.943 161.303 179.918C150.661 175.377 140.175 170.552 132.236 161.712C127.094 156.117 123.191 149.497 120.782 142.288C119.801 139.278 118.43 136.398 117.765 133.283Z" fill="#FF5F77"/>
<path d="M203.021 199.743C203.362 198.907 203.665 198.052 204.05 197.236C211.757 180.895 219.468 164.556 227.182 148.218C227.533 147.473 227.788 146.683 228.088 145.914C233.751 148.116 238.446 152.27 241.327 157.628C246.773 167.159 246.99 176.998 241.912 186.761C238.627 193.112 233.113 198.019 226.429 200.538C218.889 203.554 211.439 203.178 203.982 200.325C203.644 200.161 203.323 199.966 203.021 199.743V199.743Z" fill="#FF5F77"/>
<path d="M89.9453 34.2151L99.7011 61.5164" stroke="#C7274C" stroke-width="2" stroke-miterlimit="10"/>
<path d="M94.6387 32.538L104.394 59.8393" stroke="#C7274C" stroke-width="2" stroke-miterlimit="10"/>
<path d="M99.3318 30.8609L109.088 58.1623" stroke="#C7274C" stroke-width="2" stroke-miterlimit="10"/>
<path d="M104.025 29.1839L113.781 56.4852" stroke="#C7274C" stroke-width="2" stroke-miterlimit="10"/>
<path d="M108.718 27.5068L118.474 54.8081" stroke="#C7274C" stroke-width="2" stroke-miterlimit="10"/>
<path d="M113.412 25.8297L123.167 53.1311" stroke="#C7274C" stroke-width="2" stroke-miterlimit="10"/>
<path d="M118.105 24.1526L127.861 51.454" stroke="#C7274C" stroke-width="2" stroke-miterlimit="10"/>
<path d="M122.798 22.4756L132.554 49.7769" stroke="#C7274C" stroke-width="2" stroke-miterlimit="10"/>
<path d="M127.491 20.7985L137.247 48.0999" stroke="#C7274C" stroke-width="2" stroke-miterlimit="10"/>
<path d="M132.185 19.1214L141.94 46.4228" stroke="#C7274C" stroke-width="2" stroke-miterlimit="10"/>
<path d="M95.1043 63.1601L85.8062 37.1394" stroke="#C7274C" stroke-width="2" stroke-miterlimit="10"/>
<path d="M125.909 74.8212C126.455 76.3355 126.631 77.9586 126.422 79.554C126.105 82.0304 124.892 84.303 123.013 85.9409C121.134 87.5788 118.72 88.4682 116.227 88.4404C113.735 88.4126 111.338 87.4696 109.491 85.7902C107.643 84.1107 106.474 81.8116 106.205 79.3286C105.936 76.8456 106.586 74.3514 108.031 72.3189C109.476 70.2863 111.616 68.8566 114.045 68.3009C116.474 67.7452 119.024 68.102 121.21 69.3038C123.397 70.5056 125.069 72.4688 125.909 74.8212V74.8212Z" fill="#F9F9F9"/>
<path d="M125.909 74.8212C126.456 76.3355 126.631 77.9586 126.422 79.554C125.035 81.2892 123.12 82.5218 120.967 83.0639C118.814 83.6059 116.543 83.4277 114.499 82.5564C112.454 81.6851 110.749 80.1685 109.644 78.2378C108.538 76.307 108.092 74.068 108.374 71.862C109.506 70.4462 110.995 69.3592 112.687 68.7132C114.379 68.0673 116.214 67.8857 118.001 68.1873C119.788 68.4889 121.463 69.2627 122.853 70.4289C124.243 71.5951 125.298 73.1113 125.909 74.8212Z" fill="#010002"/>
<path d="M152.759 76.0618C153.305 77.5762 153.481 79.1992 153.272 80.7946C152.955 83.2711 151.742 85.5437 149.863 87.1816C147.984 88.8195 145.57 89.7088 143.077 89.681C140.585 89.6532 138.188 88.7102 136.341 87.0308C134.493 85.3514 133.325 83.0522 133.055 80.5692C132.786 78.0863 133.436 75.5921 134.881 73.5595C136.326 71.5269 138.466 70.0973 140.895 69.5415C143.324 68.9858 145.874 69.3427 148.06 70.5445C150.247 71.7463 151.919 73.7095 152.759 76.0618L152.759 76.0618Z" fill="#F9F9F9"/>
<path d="M152.759 76.0617C153.305 77.576 153.481 79.1991 153.272 80.7945C151.885 82.5297 149.97 83.7623 147.817 84.3043C145.664 84.8464 143.393 84.6682 141.348 83.7969C139.304 82.9256 137.599 81.409 136.494 79.4783C135.388 77.5475 134.942 75.3085 135.224 73.1025C136.356 71.6867 137.845 70.5997 139.537 69.9538C141.229 69.3078 143.064 69.1262 144.851 69.4278C146.638 69.7294 148.313 70.5032 149.703 71.6694C151.093 72.8356 152.148 74.3519 152.759 76.0617V76.0617Z" fill="#010002"/>
<path d="M134.556 99.4391C132.682 100.248 130.655 100.643 128.613 100.596C126.572 100.549 124.564 100.062 122.727 99.1671C121.33 98.474 119.393 97.0797 117.731 97.5379C117.316 97.6426 116.932 97.8443 116.61 98.1264C116.288 98.4085 116.038 98.7632 115.879 99.1612C115.721 99.5592 115.658 99.9894 115.698 100.416C115.737 100.844 115.877 101.255 116.105 101.618C118.469 105.28 122.162 109.032 126.768 109.297C128.994 109.32 131.191 108.791 133.164 107.758C135.026 106.886 136.793 105.823 138.438 104.588C141.031 102.64 140.821 97.7986 136.665 98.5747C136.057 98.7306 135.472 98.9646 134.923 99.271C134.802 99.3289 134.679 99.385 134.556 99.4391Z" fill="#F9F9F9"/>
<path d="M146.492 44.7976L146.489 44.789L137.313 19.1108" stroke="#C7274C" stroke-width="2" stroke-miterlimit="10"/>
<path d="M528.186 146.827C527.429 147.38 526.686 147.955 525.912 148.482C506.394 161.771 486.866 175.045 467.328 188.304C466.061 189.12 464.981 190.197 464.161 191.462C463.341 192.727 462.798 194.152 462.57 195.642C459.628 211.259 456.642 226.868 453.612 242.468C453.463 243.24 453.219 243.994 453.02 244.756C452.238 244.663 451.447 244.616 450.675 244.469C433.731 241.252 416.789 238.03 399.847 234.803C399.002 234.642 398.14 234.566 397.285 234.451C398.74 226.645 400.165 218.833 401.659 211.034C402.936 204.372 404.294 197.726 405.616 191.073C406.445 190.562 407.17 191.156 407.874 191.372C419.741 195.015 430.267 192.521 439.099 183.92C444.087 178.989 447.21 172.477 447.929 165.502C448.648 158.526 446.92 151.522 443.041 145.693C441.597 143.525 439.743 141.715 438.282 139.581C438.432 139.425 438.593 139.28 438.763 139.147C457.965 126.087 477.17 113.029 496.375 99.974C506.979 115.592 517.583 131.21 528.186 146.827Z" fill="#C7274C"/>
<path d="M528.186 146.827C517.583 131.21 506.979 115.592 496.375 99.9741C502.264 95.9326 508.102 91.8154 514.06 87.8798C517.311 85.7329 520.613 86.4608 522.865 89.7073C527.631 96.5767 532.302 103.512 536.997 110.431C540.274 115.262 543.539 120.102 546.789 124.951C549.607 129.141 548.899 132.854 544.702 135.7C539.208 139.426 533.692 143.12 528.186 146.827Z" fill="#FF5F77"/>
<path d="M438.282 139.581C439.743 141.715 441.597 143.525 443.041 145.693C446.92 151.522 448.648 158.526 447.929 165.502C447.21 172.477 444.088 178.99 439.099 183.92C430.267 192.521 419.741 195.015 407.874 191.373C407.17 191.156 406.445 190.562 405.616 191.073C407.265 180.13 409.213 169.265 415.479 159.795C419.418 153.693 424.6 148.492 430.685 144.533C433.231 142.903 435.563 140.944 438.282 139.581Z" fill="#C7274C"/>
<path d="M397.285 234.451C398.14 234.566 399.002 234.642 399.848 234.803C416.791 238.021 433.733 241.243 450.675 244.469C451.447 244.616 452.238 244.663 453.02 244.756C452.342 250.527 449.628 255.87 445.367 259.822C437.864 267.15 428.826 269.708 418.589 267.348C411.935 265.829 406.082 261.899 402.154 256.315C397.562 250.057 396.127 243.069 396.978 235.48C397.049 235.128 397.152 234.784 397.285 234.451V234.451Z" fill="#C7274C"/>
<path d="M523.155 90.0726L500.266 105.651" stroke="#C7274C" stroke-width="2" stroke-miterlimit="10"/>
<path d="M525.828 94.0162L502.939 109.594" stroke="#C7274C" stroke-width="2" stroke-miterlimit="10"/>
<path d="M528.501 97.9594L505.611 113.537" stroke="#C7274C" stroke-width="2" stroke-miterlimit="10"/>
<path d="M531.174 101.903L508.284 117.481" stroke="#C7274C" stroke-width="2" stroke-miterlimit="10"/>
<path d="M533.847 105.846L510.958 121.424" stroke="#C7274C" stroke-width="2" stroke-miterlimit="10"/>
<path d="M536.52 109.79L513.63 125.368" stroke="#C7274C" stroke-width="2" stroke-miterlimit="10"/>
<path d="M539.193 113.733L516.303 129.311" stroke="#C7274C" stroke-width="2" stroke-miterlimit="10"/>
<path d="M541.866 117.676L518.977 133.254" stroke="#C7274C" stroke-width="2" stroke-miterlimit="10"/>
<path d="M544.539 121.62L521.649 137.198" stroke="#C7274C" stroke-width="2" stroke-miterlimit="10"/>
<path d="M547.212 125.563L524.322 141.141" stroke="#C7274C" stroke-width="2" stroke-miterlimit="10"/>
<path d="M526.914 144.966L526.921 144.961L548.449 130.309" stroke="#C7274C" stroke-width="2" stroke-miterlimit="10"/>
<path d="M497.646 101.788L519.462 86.9413" stroke="#C7274C" stroke-width="2" stroke-miterlimit="10"/>
<path d="M473.477 159.895C471.729 159.03 470.188 157.798 468.96 156.283C467.732 154.767 466.845 153.003 466.36 151.112C466.001 149.666 465.818 147.393 464.457 146.466C464.124 146.229 463.74 146.074 463.335 146.014C462.931 145.954 462.517 145.991 462.129 146.121C461.741 146.252 461.39 146.473 461.103 146.765C460.816 147.058 460.602 147.414 460.479 147.805C459.275 151.791 458.826 156.801 461.481 160.319C462.842 161.955 464.585 163.228 466.557 164.026C468.344 164.843 470.211 165.473 472.128 165.906C475.15 166.59 478.546 163.443 475.411 160.897C474.922 160.55 474.389 160.269 473.827 160.059C473.709 160.006 473.593 159.951 473.477 159.895Z" fill="#010002"/>
<path d="M480.105 122.885C480.066 123.066 480.966 123.93 481.076 124.064C481.908 125.073 482.739 126.082 483.571 127.091C485.746 129.727 487.919 132.365 490.09 135.005C492.548 137.878 494.903 140.848 497.307 143.768C498.531 145.254 499.732 146.765 500.982 148.23C501.849 149.246 502.804 151.127 504.081 151.603C504.419 151.711 504.771 151.77 505.126 151.776C508.846 152.007 512.629 151.839 516.249 152.722C517.516 152.945 518.686 153.542 519.611 154.435C521.464 156.498 519.747 159.148 517.763 160.317C517.131 160.739 516.389 160.966 515.63 160.971C515.252 160.965 514.885 160.841 514.581 160.616C514.277 160.391 514.051 160.077 513.934 159.717C513.883 159.398 513.913 159.072 514.023 158.768C514.133 158.465 514.318 158.194 514.561 157.983C515.053 157.565 515.612 157.235 516.216 157.009C516.033 156.071 514.806 155.86 513.851 155.859C511.625 155.951 509.396 155.894 507.178 155.688C505.488 155.458 503.804 154.994 502.118 155.549C499.638 156.365 497.982 157.215 495.256 157.221C493.615 157.225 490.783 157.308 489.146 157.199C486.192 157.004 484.624 156.432 483.586 153.285C483.077 151.57 483.131 149.737 483.739 148.052C484.511 145.853 485.418 143.703 486.456 141.615C485.268 141.447 482.708 142.602 479.565 142.012C477.199 141.529 474.979 140.504 473.078 139.017C471.247 137.724 470.822 134.658 470.985 133.837C471.521 131.485 472.459 129.243 473.757 127.21C475.006 125.15 476.364 123.253 477.482 121.107C478.248 119.417 478.854 117.66 479.292 115.857C479.856 114.473 480.09 112.977 479.977 111.487C479.719 110.022 478.344 108.63 476.895 108.967C476.823 108.555 476.85 108.133 476.974 107.734C477.097 107.335 477.313 106.97 477.604 106.671C477.974 106.278 478.467 106.024 479 105.949C479.533 105.875 480.076 105.985 480.537 106.262C481.114 106.647 481.589 107.164 481.924 107.771C483.004 109.57 483.355 111.715 482.905 113.768C482.176 116.866 480.779 119.762 480.105 122.885Z" fill="black"/>
<path d="M98.1519 438.594C98.4897 439.468 98.8526 440.334 99.1615 441.219C106.946 463.511 114.714 485.809 122.464 508.113C122.924 509.548 123.685 510.87 124.695 511.99C125.705 513.11 126.941 514.002 128.321 514.609C142.644 521.492 156.948 528.416 171.232 535.381C171.94 535.724 172.605 536.155 173.289 536.544C172.997 537.276 172.747 538.028 172.405 538.736C164.912 554.269 157.415 569.8 149.913 585.329C149.539 586.105 149.243 586.917 148.91 587.713C141.746 584.287 134.569 580.89 127.423 577.427C121.319 574.47 115.25 571.438 109.166 568.439C108.887 567.506 109.649 566.96 110.04 566.335C116.629 555.816 116.945 545.003 110.923 534.246C107.452 528.151 101.969 523.45 95.4177 520.95C88.8659 518.449 81.6535 518.306 75.0189 520.544C72.5513 521.378 70.3225 522.7 67.8837 523.559C67.7718 523.374 67.6732 523.181 67.5886 522.982C59.9437 501.054 52.3015 479.124 44.6619 457.194C62.4918 450.994 80.3219 444.794 98.1519 438.594Z" fill="#C7274C"/>
<path d="M98.1521 438.594C80.3221 444.794 62.492 450.994 44.662 457.194C42.2823 450.46 39.8165 443.755 37.5571 436.981C36.3245 433.286 37.8823 430.285 41.6011 428.95C49.4699 426.124 57.3779 423.407 65.276 420.664C70.7907 418.748 76.3108 416.847 81.8363 414.963C86.6129 413.325 90.0156 414.97 91.6788 419.761C93.856 426.032 95.9961 432.316 98.1521 438.594Z" fill="#FF5F77"/>
<path d="M67.8839 523.559C70.3228 522.7 72.5515 521.378 75.0192 520.544C81.6537 518.306 88.8662 518.449 95.4179 520.949C101.97 523.45 107.452 528.151 110.923 534.246C116.946 545.003 116.63 555.816 110.04 566.335C109.649 566.96 108.887 567.506 109.166 568.439C99.0233 564.014 89.0326 559.321 81.5069 550.817C76.6325 545.433 72.9498 539.081 70.7009 532.179C69.7852 529.298 68.4959 526.538 67.8839 523.559Z" fill="#C7274C"/>
<path d="M148.91 587.713C149.243 586.918 149.539 586.105 149.913 585.329C157.407 569.796 164.905 554.265 172.405 538.736C172.747 538.028 172.997 537.276 173.289 536.544C178.688 538.694 183.146 542.698 185.862 547.836C190.997 556.98 191.13 566.373 186.2 575.649C183.01 581.684 177.7 586.321 171.29 588.669C164.056 591.485 156.935 591.063 149.825 588.277C149.503 588.117 149.197 587.928 148.91 587.713V587.713Z" fill="#FFDB29"/>
<path d="M42.029 428.764L51.1519 454.906" stroke="#C7274C" stroke-width="2" stroke-miterlimit="10"/>
<path d="M46.53 427.203L55.6529 453.344" stroke="#C7274C" stroke-width="2" stroke-miterlimit="10"/>
<path d="M51.0307 425.642L60.1536 451.783" stroke="#C7274C" stroke-width="2" stroke-miterlimit="10"/>
<path d="M55.5315 424.081L64.6543 450.222" stroke="#C7274C" stroke-width="2" stroke-miterlimit="10"/>
<path d="M60.0324 422.519L69.1553 448.661" stroke="#C7274C" stroke-width="2" stroke-miterlimit="10"/>
<path d="M64.5332 420.958L73.656 447.099" stroke="#C7274C" stroke-width="2" stroke-miterlimit="10"/>
<path d="M69.0339 419.397L78.1568 445.538" stroke="#C7274C" stroke-width="2" stroke-miterlimit="10"/>
<path d="M73.5349 417.835L82.6577 443.977" stroke="#C7274C" stroke-width="2" stroke-miterlimit="10"/>
<path d="M78.0356 416.274L87.1585 442.416" stroke="#C7274C" stroke-width="2" stroke-miterlimit="10"/>
<path d="M82.5363 414.713L91.6592 440.854" stroke="#C7274C" stroke-width="2" stroke-miterlimit="10"/>
<path d="M96.0247 439.341L96.0216 439.333L87.4412 414.746" stroke="#C7274C" stroke-width="2" stroke-miterlimit="10"/>
<path d="M46.7435 456.436L38.0486 431.521" stroke="#C7274C" stroke-width="2" stroke-miterlimit="10"/>
<path d="M96.6143 494.821C95.3268 496.286 93.7379 497.455 91.956 498.249C90.1741 499.044 88.241 499.444 86.2885 499.423C84.7988 499.395 82.5561 498.983 81.3087 500.058C80.9932 500.318 80.744 500.65 80.5813 501.025C80.4187 501.4 80.3474 501.809 80.3731 502.217C80.3989 502.626 80.521 503.023 80.7295 503.375C80.938 503.728 81.2269 504.027 81.5727 504.247C85.1111 506.442 89.8338 508.172 93.9194 506.518C95.8517 505.627 97.5329 504.273 98.8138 502.574C100.065 501.059 101.157 499.419 102.072 497.68C103.514 494.938 101.354 490.843 98.0829 493.212C97.6213 493.595 97.2114 494.037 96.8632 494.526C96.7818 494.625 96.6988 494.724 96.6143 494.821Z" fill="#010002"/>
<path d="M62.5812 478.84C62.7456 478.924 63.813 478.279 63.9712 478.207C65.1611 477.665 66.351 477.123 67.5407 476.58C70.6501 475.162 73.7606 473.746 76.8721 472.332C80.2841 470.702 83.7623 469.196 87.2043 467.629C88.9571 466.831 90.7269 466.062 92.4656 465.234C93.671 464.66 95.7354 464.223 96.526 463.113C96.7182 462.815 96.8654 462.49 96.963 462.149C98.1496 458.615 98.9661 454.918 100.756 451.65C101.299 450.484 102.179 449.508 103.281 448.846C105.753 447.59 107.868 449.935 108.484 452.153C108.728 452.873 108.756 453.648 108.564 454.383C108.46 454.747 108.245 455.069 107.95 455.304C107.654 455.54 107.291 455.677 106.913 455.696C106.593 455.663 106.285 455.55 106.02 455.365C105.756 455.18 105.542 454.931 105.401 454.641C105.124 454.059 104.951 453.433 104.888 452.792C103.935 452.725 103.414 453.856 103.166 454.779C102.678 456.952 102.046 459.091 101.273 461.179C100.613 462.752 99.7301 464.259 99.8295 466.032C99.9759 468.638 100.368 470.457 99.6685 473.092C99.2475 474.678 98.5947 477.435 98.0663 478.988C97.1124 481.791 96.1551 483.157 92.846 483.346C91.0582 483.393 89.3007 482.867 87.8315 481.844C85.9063 480.529 84.0645 479.096 82.3164 477.553C81.8473 478.657 82.3002 481.429 80.9168 484.312C79.8382 486.472 78.2733 488.352 76.3448 489.803C74.6218 491.237 71.5502 490.853 70.799 490.484C68.6666 489.357 66.7438 487.871 65.1154 486.091C63.4492 484.351 61.9677 482.549 60.1844 480.914C58.7509 479.736 57.2099 478.696 55.582 477.806C54.3908 476.904 53.0066 476.29 51.5387 476.013C50.0562 475.883 48.3562 476.852 48.306 478.339C47.8903 478.301 47.4891 478.166 47.1356 477.943C46.782 477.721 46.4861 477.418 46.2722 477.059C45.9887 476.6 45.8702 476.059 45.9365 475.524C46.0027 474.989 46.2497 474.494 46.6365 474.12C47.157 473.663 47.78 473.337 48.4531 473.171C50.4699 472.594 52.6332 472.81 54.4994 473.776C57.3029 475.282 59.7385 477.381 62.5812 478.84Z" fill="black"/>
<path d="M251.238 350.132C251.053 350.925 250.891 351.724 250.68 352.511C245.374 372.33 240.096 392.157 234.715 411.956C234.345 413.212 234.247 414.533 234.429 415.831C234.611 417.129 235.068 418.375 235.771 419.486C242.773 431.435 249.74 443.404 256.674 455.392C257.018 455.984 257.289 456.619 257.594 457.233C257.022 457.616 256.472 458.034 255.877 458.375C242.816 465.868 229.753 473.357 216.687 480.843C216.036 481.217 215.421 481.656 214.79 482.064C211.279 476.1 207.746 470.15 204.266 464.168C201.294 459.059 198.384 453.913 195.446 448.784C195.703 447.977 196.523 447.957 197.113 447.7C207.057 443.367 212.596 435.754 213.515 425.083C213.992 419.007 212.327 412.949 208.806 407.949C205.284 402.949 200.127 399.319 194.218 397.682C192.02 397.074 189.755 396.934 187.565 396.358C187.575 396.17 187.598 395.984 187.634 395.8C192.863 376.31 198.094 356.821 203.328 337.333C219.298 341.599 235.268 345.865 251.238 350.132Z" fill="#FFFF63"/>
<path d="M251.239 350.132C235.269 345.865 219.299 341.599 203.329 337.333C204.911 331.332 206.417 325.31 208.106 319.34C209.028 316.083 211.631 314.689 214.983 315.549C222.074 317.367 229.141 319.283 236.214 321.175C241.153 322.496 246.087 323.83 251.018 325.179C255.285 326.338 256.944 329.184 255.796 333.439C254.294 339.008 252.759 344.568 251.239 350.132Z" fill="#FFDB29"/>
<path d="M187.565 396.358C189.755 396.934 192.02 397.074 194.218 397.682C200.127 399.319 205.284 402.949 208.806 407.949C212.327 412.949 213.992 419.007 213.515 425.083C212.596 435.754 207.057 443.367 197.113 447.7C196.523 447.957 195.703 447.977 195.446 448.784C190.267 440.645 185.33 432.388 184.052 422.599C183.163 416.348 183.613 409.985 185.373 403.928C186.124 401.41 186.545 398.797 187.565 396.358Z" fill="#C7274C"/>
<path d="M214.789 482.064C215.421 481.656 216.035 481.217 216.687 480.843C229.749 473.351 242.812 465.861 255.876 458.375C256.471 458.034 257.022 457.616 257.593 457.233C260.451 461.417 261.716 466.474 261.161 471.493C260.392 480.572 255.875 487.383 247.745 491.636C242.469 494.41 236.342 495.144 230.542 493.696C223.916 492.181 218.961 488.395 215.175 482.916C215.021 482.645 214.892 482.359 214.789 482.064V482.064Z" fill="#C7274C"/>
<path d="M215.383 315.625L209.157 338.863" stroke="#C7274C" stroke-width="2" stroke-miterlimit="10"/>
<path d="M219.413 316.704L213.186 339.943" stroke="#C7274C" stroke-width="2" stroke-miterlimit="10"/>
<path d="M223.442 317.784L217.215 341.022" stroke="#C7274C" stroke-width="2" stroke-miterlimit="10"/>
<path d="M227.471 318.864L221.244 342.102" stroke="#C7274C" stroke-width="2" stroke-miterlimit="10"/>
<path d="M231.501 319.943L225.274 343.182" stroke="#C7274C" stroke-width="2" stroke-miterlimit="10"/>
<path d="M235.53 321.023L229.304 344.261" stroke="#C7274C" stroke-width="2" stroke-miterlimit="10"/>
<path d="M239.56 322.103L233.333 345.341" stroke="#C7274C" stroke-width="2" stroke-miterlimit="10"/>
<path d="M243.589 323.182L237.362 346.421" stroke="#C7274C" stroke-width="2" stroke-miterlimit="10"/>
<path d="M247.618 324.262L241.391 347.501" stroke="#C7274C" stroke-width="2" stroke-miterlimit="10"/>
<path d="M251.648 325.342L245.421 348.58" stroke="#C7274C" stroke-width="2" stroke-miterlimit="10"/>
<path d="M205.209 337.806L211.144 315.658" stroke="#C7274C" stroke-width="2" stroke-miterlimit="10"/>
<path d="M220.905 360.35C220.563 361.642 219.914 362.832 219.013 363.821C217.621 365.359 215.707 366.335 213.635 366.561C211.564 366.788 209.478 366.251 207.774 365.051C206.069 363.851 204.865 362.073 204.389 360.053C203.912 358.032 204.197 355.911 205.19 354.09C206.182 352.27 207.813 350.876 209.772 350.175C211.732 349.473 213.885 349.512 215.822 350.284C217.76 351.056 219.347 352.507 220.284 354.362C221.221 356.218 221.442 358.348 220.905 360.35V360.35Z" fill="#0F0F0F"/>
<path d="M220.905 360.351C220.563 361.642 219.915 362.832 219.014 363.821C217.235 364.347 215.331 364.28 213.59 363.63C211.85 362.98 210.369 361.782 209.374 360.22C208.378 358.657 207.923 356.816 208.077 354.975C208.231 353.135 208.985 351.397 210.226 350.026C211.677 349.597 213.219 349.561 214.691 349.922C216.164 350.283 217.514 351.028 218.602 352.081C219.691 353.133 220.478 354.454 220.883 355.908C221.287 357.362 221.295 358.895 220.905 360.351Z" fill="#010002"/>
<path d="M238.818 373.916C238.476 375.207 237.828 376.397 236.927 377.386C235.534 378.925 233.62 379.9 231.549 380.127C229.477 380.354 227.391 379.816 225.687 378.616C223.983 377.417 222.778 375.638 222.302 373.618C221.826 371.598 222.111 369.476 223.103 367.656C224.095 365.835 225.726 364.442 227.686 363.74C229.645 363.039 231.798 363.078 233.735 363.849C235.673 364.621 237.261 366.072 238.197 367.928C239.134 369.783 239.355 371.914 238.818 373.916L238.818 373.916Z" fill="#0F0F0F"/>
<path d="M238.818 373.916C238.477 375.207 237.828 376.397 236.927 377.386C235.148 377.913 233.244 377.846 231.503 377.195C229.763 376.545 228.282 375.348 227.287 373.785C226.292 372.223 225.836 370.381 225.99 368.54C226.144 366.7 226.899 364.962 228.139 363.591C229.591 363.162 231.132 363.126 232.605 363.487C234.077 363.849 235.427 364.594 236.516 365.646C237.604 366.698 238.391 368.019 238.796 369.473C239.201 370.927 239.209 372.461 238.818 373.916V373.916Z" fill="#010002"/>
<path d="M215.187 381.234C213.512 380.898 211.928 380.206 210.544 379.207C209.159 378.208 208.007 376.925 207.165 375.445C206.531 374.31 205.858 372.442 204.495 371.967C204.16 371.842 203.8 371.798 203.444 371.838C203.088 371.877 202.747 372.001 202.449 372.197C202.151 372.393 201.904 372.657 201.729 372.967C201.553 373.277 201.454 373.624 201.44 373.979C201.332 377.596 202.097 381.904 205.145 384.266C206.668 385.337 208.433 386.017 210.282 386.247C211.979 386.534 213.701 386.647 215.42 386.584C218.131 386.484 220.282 383.083 217.051 381.644C216.558 381.462 216.043 381.344 215.52 381.293C215.409 381.275 215.298 381.255 215.187 381.234Z" fill="#0F0F0F"/>
<path d="M249.329 349.628L249.33 349.621L255.187 327.764" stroke="#C7274C" stroke-width="2" stroke-miterlimit="10"/>
<path d="M203.758 352.516C203.798 352.697 204.976 353.107 205.133 353.183C206.309 353.754 207.485 354.324 208.662 354.894C211.738 356.384 214.813 357.876 217.886 359.371C221.319 360.958 224.697 362.676 228.099 364.327C229.832 365.168 231.553 366.041 233.3 366.851C234.511 367.413 236.164 368.725 237.523 368.625C237.876 368.583 238.22 368.489 238.545 368.347C242.023 367.007 245.391 365.277 249.05 364.571C250.294 364.245 251.607 364.3 252.82 364.727C255.365 365.829 254.908 368.953 253.592 370.843C253.193 371.49 252.614 372.006 251.926 372.327C251.58 372.479 251.195 372.519 250.824 372.441C250.454 372.364 250.118 372.172 249.862 371.893C249.682 371.626 249.574 371.316 249.547 370.994C249.52 370.673 249.576 370.35 249.709 370.056C249.981 369.471 250.353 368.939 250.807 368.481C250.249 367.705 249.046 368.025 248.177 368.422C246.193 369.433 244.143 370.31 242.041 371.048C240.409 371.543 238.685 371.824 237.383 373.031C235.469 374.807 234.319 376.269 231.843 377.411C230.354 378.099 227.814 379.355 226.281 379.938C223.514 380.992 221.851 381.126 219.595 378.698C218.417 377.352 217.702 375.662 217.553 373.878C217.337 371.557 217.266 369.224 217.339 366.894C216.189 367.237 214.343 369.354 211.241 370.128C208.889 370.675 206.443 370.669 204.095 370.11C201.892 369.697 200.228 367.087 200.033 366.273C199.541 363.912 199.459 361.483 199.791 359.093C200.068 356.701 200.511 354.41 200.633 351.993C200.625 350.138 200.443 348.288 200.089 346.467C200.025 344.974 199.615 343.516 198.891 342.209C198.046 340.985 196.215 340.293 195.038 341.203C194.802 340.859 194.65 340.464 194.596 340.05C194.542 339.635 194.587 339.214 194.726 338.821C194.899 338.31 195.24 337.873 195.694 337.583C196.148 337.293 196.687 337.167 197.222 337.226C197.906 337.335 198.554 337.608 199.112 338.02C200.843 339.205 202.056 341.009 202.503 343.062C203.131 346.182 203.069 349.396 203.758 352.516Z" fill="black"/>
<path d="M328.788 210.128C328.888 211.06 329.014 211.99 329.083 212.924C330.833 236.472 332.565 260.021 334.278 283.571C334.352 285.076 334.744 286.549 335.43 287.892C336.115 289.235 337.078 290.418 338.254 291.361C350.308 301.717 362.332 312.107 374.328 322.531C374.922 323.046 375.453 323.634 376.013 324.188C375.541 324.818 375.105 325.48 374.592 326.075C363.334 339.14 352.073 352.202 340.807 365.26C340.245 365.912 339.748 366.621 339.221 367.303C333.188 362.14 327.135 357 321.129 351.807C315.998 347.37 310.921 342.871 305.82 338.399C305.792 337.426 306.67 337.095 307.209 336.593C316.296 328.138 319.4 317.775 316.367 305.826C314.592 299.04 310.513 293.08 304.831 288.97C299.15 284.859 292.22 282.854 285.233 283.299C282.633 283.465 280.138 284.165 277.56 284.363C277.5 284.156 277.455 283.944 277.424 283.73C275.716 260.57 274.009 237.41 272.306 214.25C291.133 212.876 309.96 211.502 328.788 210.128Z" fill="#FFDB29"/>
<path d="M328.788 210.128C309.961 211.502 291.133 212.876 272.306 214.25C271.75 207.13 271.104 200.015 270.675 192.887C270.441 188.999 272.722 186.503 276.66 186.176C284.992 185.483 293.333 184.906 301.673 184.299C307.495 183.876 313.319 183.469 319.144 183.079C324.182 182.733 327.043 185.203 327.409 190.261C327.889 196.882 328.33 203.505 328.788 210.128Z" fill="#C8AA00"/>
<path d="M277.56 284.363C280.138 284.165 282.634 283.465 285.233 283.299C292.221 282.854 299.15 284.859 304.832 288.969C310.513 293.08 314.592 299.04 316.367 305.826C319.4 317.775 316.296 328.138 307.209 336.593C306.67 337.095 305.792 337.426 305.82 338.399C297.168 331.5 288.733 324.381 283.664 314.218C280.349 307.756 278.436 300.668 278.05 293.419C277.911 290.399 277.38 287.4 277.56 284.363Z" fill="#FFDB29"/>
<path d="M339.221 367.303C339.749 366.621 340.245 365.912 340.807 365.26C352.066 352.196 363.328 339.135 374.592 326.075C375.105 325.48 375.541 324.818 376.013 324.188C380.672 327.661 383.942 332.683 385.235 338.349C387.829 348.51 385.526 357.617 378.363 365.302C373.72 370.305 367.391 373.409 360.591 374.019C352.875 374.866 346.106 372.616 339.959 368.084C339.69 367.847 339.443 367.585 339.221 367.303V367.303Z" fill="#FFDB29"/>
<path d="M277.121 186.107L279.167 213.719" stroke="#FFDB29" stroke-width="2" stroke-miterlimit="10"/>
<path d="M281.873 185.764L283.919 213.376" stroke="#FFDB29" stroke-width="2" stroke-miterlimit="10"/>
<path d="M286.624 185.421L288.67 213.033" stroke="#FFDB29" stroke-width="2" stroke-miterlimit="10"/>
<path d="M291.376 185.078L293.422 212.69" stroke="#FFDB29" stroke-width="2" stroke-miterlimit="10"/>
<path d="M296.127 184.735L298.174 212.346" stroke="#FFDB29" stroke-width="2" stroke-miterlimit="10"/>
<path d="M300.879 184.392L302.925 212.003" stroke="#FFDB29" stroke-width="2" stroke-miterlimit="10"/>
<path d="M305.63 184.048L307.677 211.66" stroke="#FFDB29" stroke-width="2" stroke-miterlimit="10"/>
<path d="M310.382 183.705L312.428 211.317" stroke="#FFDB29" stroke-width="2" stroke-miterlimit="10"/>
<path d="M315.134 183.362L317.18 210.974" stroke="#FFDB29" stroke-width="2" stroke-miterlimit="10"/>
<path d="M319.885 183.019L321.931 210.631" stroke="#FFDB29" stroke-width="2" stroke-miterlimit="10"/>
<path d="M326.539 210.299L326.538 210.291L324.614 184.32" stroke="#FFDB29" stroke-width="2" stroke-miterlimit="10"/>
<path d="M274.513 214.056L272.563 187.74" stroke="#FFDB29" stroke-width="2" stroke-miterlimit="10"/>
<path d="M312.75 264.041C311.127 265.123 309.289 265.841 307.363 266.147C305.436 266.453 303.465 266.339 301.585 265.813C300.153 265.401 298.093 264.423 296.61 265.138C296.238 265.308 295.912 265.563 295.657 265.884C295.403 266.204 295.229 266.58 295.148 266.982C295.067 267.383 295.082 267.798 295.192 268.193C295.302 268.587 295.504 268.95 295.781 269.252C298.631 272.289 302.745 275.182 307.119 274.642C309.216 274.282 311.191 273.408 312.868 272.099C314.468 270.96 315.947 269.658 317.281 268.215C319.385 265.939 318.357 261.425 314.585 262.867C314.04 263.118 313.529 263.438 313.067 263.82C312.962 263.895 312.856 263.969 312.75 264.041Z" fill="#010002"/>
<path d="M284.012 239.796C284.149 239.92 285.348 239.573 285.519 239.545C286.809 239.329 288.098 239.113 289.388 238.897C292.758 238.332 296.129 237.769 299.501 237.209C303.219 236.517 306.968 235.963 310.698 235.34C312.598 235.023 314.506 234.738 316.4 234.388C317.713 234.146 319.82 234.259 320.871 233.391C321.134 233.153 321.36 232.877 321.543 232.573C323.603 229.466 325.349 226.107 327.924 223.413C328.75 222.428 329.852 221.712 331.089 221.358C333.802 220.785 335.238 223.597 335.258 225.899C335.307 226.658 335.134 227.414 334.758 228.074C334.564 228.398 334.273 228.654 333.926 228.805C333.58 228.955 333.194 228.994 332.824 228.915C332.523 228.8 332.255 228.611 332.047 228.364C331.839 228.117 331.698 227.821 331.636 227.505C331.52 226.87 331.514 226.221 331.62 225.585C330.716 225.275 329.92 226.232 329.441 227.059C328.408 229.032 327.244 230.934 325.957 232.752C324.913 234.1 323.669 235.327 323.307 237.065C322.773 239.62 322.682 241.479 321.324 243.843C320.507 245.266 319.162 247.76 318.25 249.123C316.603 251.584 315.325 252.656 312.08 251.981C310.341 251.565 308.779 250.602 307.625 249.233C306.106 247.465 304.697 245.604 303.408 243.661C302.669 244.606 302.389 247.401 300.307 249.828C298.706 251.635 296.708 253.045 294.47 253.948C292.434 254.887 289.567 253.721 288.937 253.17C287.168 251.53 285.696 249.597 284.584 247.456C283.425 245.344 282.46 243.22 281.161 241.179C280.081 239.67 278.862 238.267 277.519 236.986C276.602 235.806 275.424 234.855 274.078 234.208C272.68 233.699 270.787 234.194 270.353 235.617C269.962 235.474 269.609 235.239 269.325 234.932C269.041 234.626 268.834 234.257 268.72 233.855C268.565 233.338 268.591 232.784 268.793 232.285C268.995 231.786 269.362 231.371 269.833 231.11C270.454 230.803 271.14 230.65 271.833 230.664C273.931 230.628 275.964 231.397 277.517 232.813C279.835 234.993 281.644 237.651 284.012 239.796Z" fill="#C7274C"/>
<path d="M329.5 4.00003L341.052 34.156L367.075 15.0329L360.49 46.6475L392.719 44.6287L370.088 67.6644L398.293 83.3909L366.799 90.5341L382.025 119.013L351.669 107.996L349.08 140.185L329.5 114.505L309.92 140.185L307.331 107.996L276.975 119.013L292.201 90.5341L260.707 83.3909L288.912 67.6644L266.281 44.6287L298.51 46.6475L291.925 15.0329L317.948 34.156L329.5 4.00003Z" fill="#0F0F0F"/>
<path d="M316 398L322.593 405.548L332.219 402.762L333.685 412.676L343.289 415.538L339.162 424.67L345.695 432.269L337.285 437.721L338.672 447.646L328.651 447.685L324.452 456.785L316 451.4L307.548 456.785L303.349 447.685L293.328 447.646L294.715 437.721L286.305 432.269L292.838 424.67L288.711 415.538L298.315 412.676L299.781 402.762L309.407 405.548L316 398Z" fill="#FF5F77"/>
<path d="M136.5 236L142.121 269.358L164.884 244.334L151.577 275.436L184.256 266.691L156.247 285.661L188.466 295.972L154.647 296.788L176.177 322.88L147.286 305.283L151.291 338.873L136.5 308.45L121.709 338.873L125.714 305.283L96.8231 322.88L118.353 296.788L84.5344 295.972L116.753 285.661L88.7443 266.691L121.423 275.436L108.116 244.334L130.879 269.358L136.5 236Z" fill="#C7274C"/>
<path d="M435.5 296L439.684 309.252L450.368 300.366L446.723 313.775L460.515 312.076L450.199 321.387L462.72 327.414L449.008 329.669L456.283 341.509L443.529 335.993L443.248 349.886L435.5 338.35L427.752 349.886L427.471 335.993L414.717 341.509L421.992 329.669L408.28 327.414L420.801 321.387L410.485 312.076L424.277 313.775L420.632 300.366L431.316 309.252L435.5 296Z" fill="#FFDB29"/>
<path d="M509.688 555.037C509.169 554.203 508.627 553.384 508.136 552.534C495.769 531.124 483.372 509.731 471.085 488.276C470.331 486.89 469.291 485.679 468.034 484.725C466.777 483.772 465.333 483.096 463.796 482.743C447.736 478.477 431.688 474.164 415.652 469.807C414.858 469.592 414.091 469.28 413.312 469.014C413.469 468.204 413.578 467.38 413.79 466.585C418.439 449.126 423.093 431.668 427.751 414.212C427.983 413.34 428.128 412.445 428.314 411.561C436.343 413.678 444.38 415.763 452.398 417.92C459.247 419.763 466.074 421.689 472.911 423.579C473.38 424.484 472.705 425.196 472.426 425.916C467.722 438.037 469.518 449.227 477.812 459.113C482.573 464.702 489.125 468.462 496.344 469.747C503.563 471.031 510.999 469.76 517.373 466.151C519.744 464.809 521.774 463.009 524.11 461.646C524.261 461.814 524.4 461.993 524.526 462.181C536.678 483.244 548.828 504.309 560.974 525.375C543.879 535.262 526.783 545.15 509.688 555.037Z" fill="#FF92A6"/>
<path d="M509.688 555.037C526.784 545.149 543.879 535.262 560.975 525.375C564.739 531.836 568.587 538.252 572.235 544.778C574.226 548.338 573.215 551.733 569.657 553.839C562.13 558.294 554.542 562.646 546.968 567.023C541.68 570.079 536.384 573.12 531.079 576.147C526.495 578.771 522.677 577.748 520.03 573.145C516.564 567.119 513.134 561.074 509.688 555.037Z" fill="#FF5F77"/>
<path d="M524.11 461.646C521.774 463.009 519.744 464.809 517.374 466.151C510.999 469.76 503.564 471.031 496.344 469.746C489.125 468.462 482.573 464.702 477.813 459.113C469.518 449.227 467.722 438.037 472.426 425.916C472.705 425.196 473.381 424.484 472.911 423.579C484.196 426.137 495.377 429.003 504.774 436.274C510.836 440.856 515.863 446.668 519.527 453.328C521.032 456.113 522.897 458.7 524.11 461.646Z" fill="#FF5F77"/>
<path d="M428.314 411.561C428.128 412.445 427.983 413.34 427.751 414.211C423.101 431.67 418.447 449.128 413.79 466.585C413.578 467.38 413.468 468.204 413.311 469.014C407.345 467.864 401.981 464.62 398.185 459.866C391.117 451.466 389.139 441.826 392.382 431.31C394.475 424.473 399.019 418.656 405.142 414.979C412.019 410.659 419.415 409.692 427.264 411.161C427.625 411.262 427.977 411.396 428.314 411.561V411.561Z" fill="#FF5F77"/>
<path d="M569.254 554.114L554.758 529.006" stroke="#C7274C" stroke-width="2" stroke-miterlimit="10"/>
<path d="M564.938 556.606L550.442 531.498" stroke="#C7274C" stroke-width="2" stroke-miterlimit="10"/>
<path d="M560.622 559.098L546.126 533.99" stroke="#C7274C" stroke-width="2" stroke-miterlimit="10"/>
<path d="M556.306 561.59L541.81 536.482" stroke="#C7274C" stroke-width="2" stroke-miterlimit="10"/>
<path d="M551.989 564.082L537.493 538.974" stroke="#C7274C" stroke-width="2" stroke-miterlimit="10"/>
<path d="M547.673 566.574L533.177 541.466" stroke="#C7274C" stroke-width="2" stroke-miterlimit="10"/>
<path d="M543.357 569.066L528.861 543.958" stroke="#C7274C" stroke-width="2" stroke-miterlimit="10"/>
<path d="M539.041 571.558L524.545 546.45" stroke="#C7274C" stroke-width="2" stroke-miterlimit="10"/>
<path d="M534.725 574.05L520.229 548.942" stroke="#C7274C" stroke-width="2" stroke-miterlimit="10"/>
<path d="M530.409 576.542L515.913 551.434" stroke="#C7274C" stroke-width="2" stroke-miterlimit="10"/>
<path d="M558.985 526.564L572.801 550.494" stroke="#C7274C" stroke-width="2" stroke-miterlimit="10"/>
<path d="M526.588 520.62C525.779 519.228 525.315 517.663 525.235 516.056C525.102 513.563 525.887 511.109 527.442 509.161C528.996 507.212 531.212 505.904 533.669 505.484C536.126 505.064 538.653 505.562 540.772 506.883C542.891 508.204 544.453 510.256 545.163 512.65C545.873 515.044 545.682 517.615 544.625 519.874C543.568 522.132 541.72 523.923 539.43 524.905C537.14 525.888 534.567 525.994 532.2 525.204C529.834 524.414 527.837 522.783 526.588 520.62V520.62Z" fill="#F9F9F9"/>
<path d="M526.588 520.62C525.779 519.228 525.315 517.663 525.234 516.056C526.287 514.1 527.951 512.544 529.971 511.624C531.992 510.705 534.258 510.472 536.426 510.963C538.593 511.453 540.542 512.639 541.977 514.34C543.411 516.041 544.251 518.164 544.369 520.385C543.51 521.981 542.24 523.317 540.691 524.256C539.143 525.195 537.371 525.703 535.558 525.727C533.746 525.751 531.959 525.29 530.383 524.392C528.806 523.495 527.496 522.192 526.588 520.62Z" fill="#010002"/>
<path d="M499.952 524.217C499.142 522.825 498.678 521.26 498.598 519.653C498.465 517.16 499.25 514.706 500.805 512.758C502.36 510.809 504.576 509.501 507.032 509.081C509.489 508.662 512.017 509.159 514.135 510.48C516.254 511.801 517.816 513.853 518.526 516.247C519.237 518.642 519.045 521.212 517.988 523.471C516.932 525.73 515.083 527.52 512.793 528.502C510.503 529.485 507.931 529.591 505.564 528.802C503.197 528.012 501.2 526.38 499.952 524.217L499.952 524.217Z" fill="#F9F9F9"/>
<path d="M499.952 524.217C499.142 522.825 498.678 521.26 498.598 519.653C499.651 517.697 501.314 516.141 503.334 515.221C505.355 514.302 507.622 514.07 509.789 514.56C511.956 515.05 513.906 516.236 515.34 517.937C516.774 519.638 517.614 521.761 517.733 523.982C516.873 525.578 515.604 526.914 514.055 527.853C512.506 528.792 510.734 529.3 508.922 529.324C507.109 529.348 505.323 528.887 503.746 527.99C502.169 527.092 500.859 525.789 499.952 524.217V524.217Z" fill="#010002"/>
<path d="M513.665 497.953C515.364 496.821 517.287 496.069 519.303 495.749C521.32 495.429 523.383 495.548 525.351 496.098C526.849 496.529 529.005 497.553 530.557 496.804C530.947 496.627 531.289 496.36 531.555 496.024C531.821 495.689 532.004 495.295 532.088 494.875C532.173 494.455 532.157 494.021 532.042 493.608C531.926 493.194 531.715 492.814 531.425 492.498C528.443 489.32 524.137 486.292 519.558 486.858C517.363 487.235 515.297 488.149 513.542 489.519C511.866 490.711 510.318 492.073 508.922 493.584C506.721 495.966 507.796 500.691 511.745 499.182C512.315 498.919 512.849 498.584 513.333 498.184C513.443 498.105 513.553 498.028 513.665 497.953Z" fill="#F9F9F9"/>
<path d="M511.726 553.849L511.731 553.857L525.365 577.472" stroke="#C7274C" stroke-width="2" stroke-miterlimit="10"/>
</svg>
