<svg width="16" height="18" viewBox="0 0 16 18" fill="none" xmlns="http://www.w3.org/2000/svg">
<path d="M8.97745 1.36951H14.9029L14.928 4.05292L15 11.7388C14.9784 12.567 14.6633 14.3692 13.5753 14.9522C12.4874 15.5353 7.46642 16.697 5.09193 17.205C4.34721 17.3927 2.68291 17.576 1.98352 16.8074C1.10928 15.8467 0.817866 15.0516 1.10928 13.7927C1.34241 12.7856 2.71745 11.9154 3.37583 11.6062L7.34667 10.1314C7.78918 9.87743 9.18883 8.98855 9.07459 7.4983C9.01649 6.74043 8.98961 5.37083 8.97911 4.05292C8.97088 3.02038 8.97271 2.01955 8.97745 1.36951Z" fill="white"/>
<path d="M5.09193 17.205C7.46642 16.697 12.4874 15.5353 13.5753 14.9522C14.6633 14.3692 14.9784 12.567 15 11.7388L14.928 4.05292M5.09193 17.205C4.34721 17.3927 2.68291 17.576 1.98352 16.8074C1.10928 15.8467 0.817866 15.0516 1.10928 13.7927C1.34241 12.7856 2.71745 11.9154 3.37583 11.6062M5.09193 17.205C5.68771 15.2173 4.19611 12.6443 3.37583 11.6062M3.37583 11.6062L7.34667 10.1314C7.78918 9.87743 9.18883 8.98855 9.07459 7.4983C9.01649 6.74043 8.98961 5.37083 8.97911 4.05292M8.97911 4.05292C8.97088 3.02038 8.97271 2.01955 8.97745 1.36951H14.9029L14.928 4.05292M8.97911 4.05292H14.928" stroke="white"/>
</svg>
