<svg width="81" height="101" viewBox="0 0 81 101" fill="none" xmlns="http://www.w3.org/2000/svg">
<path d="M38.2847 16.5258L44.6485 33.1375L58.983 22.6033L55.3556 40.0185L73.1097 38.9064L60.6428 51.5959L76.1797 60.2589L58.8315 64.1939L67.2184 79.8816L50.4967 73.8127L49.0708 91.5444L38.2847 77.3984L27.4987 91.5444L26.0727 73.8127L9.35106 79.8816L17.738 64.1939L0.389683 60.2589L15.9266 51.5959L3.45971 38.9064L21.2139 40.0185L17.5864 22.6033L31.9209 33.1375L38.2847 16.5258Z" fill="white"/>
<path d="M34.1362 19.5359C34.2963 19.9414 34.4679 20.3427 34.6146 20.7529C38.3113 31.091 42.0222 41.4241 45.6803 51.7758C45.8995 52.4415 46.2575 53.053 46.7305 53.5698C47.2035 54.0867 47.7807 54.4969 48.4237 54.7734C55.0995 57.9169 61.7664 61.0793 68.4245 64.2606C68.7542 64.4173 69.0645 64.6149 69.3838 64.7934C69.2507 65.1348 69.1373 65.4856 68.9814 65.8163C65.5595 73.0728 62.1356 80.3284 58.7096 87.583C58.5388 87.9452 58.4041 88.3246 58.2526 88.696C54.9139 87.1317 51.569 85.5805 48.2383 83.9992C45.3931 82.6484 42.5642 81.263 39.728 79.8929C39.5952 79.4599 39.9469 79.2026 40.1262 78.9106C43.147 73.9901 43.2538 68.9589 40.4181 63.9795C38.7839 61.1584 36.2211 58.9939 33.1698 57.8577C30.1185 56.7214 26.7692 56.6843 23.6969 57.7528C22.5542 58.1504 21.5243 58.7748 20.3951 59.1842C20.3424 59.0986 20.2959 59.0094 20.2559 58.9173C16.6256 48.7478 12.9965 38.5778 9.36865 28.4075C17.6245 25.4503 25.8803 22.4931 34.1362 19.5359Z" fill="#FFDB29"/>
<path d="M34.1368 19.5358C25.881 22.493 17.6251 25.4502 9.36926 28.4073C8.23954 25.2846 7.06997 22.1755 5.99596 19.0338C5.41005 17.32 6.1223 15.9176 7.84409 15.2811C11.4872 13.9345 15.149 12.6383 18.8061 11.3295C21.3596 10.4157 23.9156 9.50915 26.4743 8.60982C28.686 7.82851 30.272 8.57987 31.0619 10.8016C32.0958 13.7098 33.1126 16.6241 34.1368 19.5358Z" fill="#FFDB29"/>
<path d="M20.3951 59.1841C21.5244 58.7748 22.5543 58.1504 23.697 57.7527C26.7693 56.6843 30.1186 56.7214 33.1699 57.8576C36.2211 58.9939 38.7839 61.1584 40.4182 63.9795C43.2539 68.9589 43.1471 73.9901 40.1263 78.9106C39.947 79.2025 39.5953 79.4598 39.7281 79.8928C35.0024 77.876 30.3463 75.7334 26.8208 71.8083C24.5377 69.3238 22.8044 66.3842 21.7348 63.1828C21.2991 61.8462 20.6903 60.5677 20.3951 59.1841Z" fill="#C7274C"/>
<path d="M58.2522 88.696C58.4037 88.3246 58.5384 87.9452 58.7092 87.583C62.1316 80.3267 65.5555 73.0711 68.981 65.8163C69.1369 65.4857 69.2503 65.1348 69.3834 64.7934C71.898 65.7711 73.9828 67.6156 75.2624 69.9947C77.6806 74.2273 77.7767 78.5959 75.5221 82.9316C74.0632 85.7516 71.6146 87.9304 68.6469 89.0492C65.2986 90.3884 61.9905 90.2215 58.679 88.9544C58.5292 88.8815 58.3863 88.795 58.2522 88.696V88.696Z" fill="#C7274C"/>
<path d="M8.0415 15.1932L12.3736 27.3164" stroke="#C7274C" stroke-width="2" stroke-miterlimit="10"/>
<path d="M10.1255 14.4484L14.4575 26.5715" stroke="#C7274C" stroke-width="2" stroke-miterlimit="10"/>
<path d="M12.2095 13.7037L16.5415 25.8269" stroke="#C7274C" stroke-width="2" stroke-miterlimit="10"/>
<path d="M14.2935 12.9591L18.6255 25.0823" stroke="#C7274C" stroke-width="2" stroke-miterlimit="10"/>
<path d="M16.3774 12.2142L20.7095 24.3374" stroke="#C7274C" stroke-width="2" stroke-miterlimit="10"/>
<path d="M18.4614 11.4696L22.7935 23.5928" stroke="#C7274C" stroke-width="2" stroke-miterlimit="10"/>
<path d="M20.5454 10.7249L24.8775 22.848" stroke="#C7274C" stroke-width="2" stroke-miterlimit="10"/>
<path d="M22.6294 9.98022L26.9615 22.1034" stroke="#C7274C" stroke-width="2" stroke-miterlimit="10"/>
<path d="M24.7134 9.23547L29.0454 21.3587" stroke="#C7274C" stroke-width="2" stroke-miterlimit="10"/>
<path d="M26.7974 8.49084L31.1294 20.614" stroke="#C7274C" stroke-width="2" stroke-miterlimit="10"/>
<path d="M10.332 28.0462L6.20312 16.4917" stroke="#C7274C" stroke-width="2" stroke-miterlimit="10"/>
<path d="M24.0108 33.2243C24.2534 33.8967 24.3315 34.6175 24.2385 35.3259C24.0979 36.4256 23.5594 37.4347 22.725 38.162C21.8906 38.8893 20.8184 39.2843 19.7117 39.2719C18.6049 39.2596 17.5405 38.8408 16.7202 38.0951C15.9 37.3493 15.381 36.3284 15.2615 35.2258C15.142 34.1233 15.4304 33.0157 16.072 32.1131C16.7136 31.2106 17.6639 30.5757 18.7426 30.329C19.8213 30.0822 20.9534 30.2407 21.9245 30.7743C22.8955 31.308 23.6378 32.1797 24.0108 33.2243V33.2243Z" fill="#F9F9F9"/>
<path d="M24.0115 33.2243C24.2541 33.8967 24.3322 34.6174 24.2393 35.3259C23.6235 36.0964 22.7729 36.6437 21.817 36.8844C20.8611 37.1251 19.8524 37.046 18.9447 36.6591C18.0369 36.2722 17.2798 35.5988 16.7889 34.7414C16.2979 33.884 16.1 32.8898 16.2252 31.9102C16.7278 31.2815 17.3889 30.7989 18.1403 30.512C18.8918 30.2252 19.7063 30.1446 20.4999 30.2785C21.2934 30.4124 22.0372 30.756 22.6546 31.2739C23.2719 31.7917 23.7403 32.465 24.0115 33.2243Z" fill="#010002"/>
<path d="M35.9337 33.7753C36.1763 34.4478 36.2544 35.1685 36.1614 35.8769C36.0208 36.9766 35.4822 37.9857 34.6478 38.713C33.8135 39.4404 32.7413 39.8353 31.6345 39.8229C30.5277 39.8106 29.4633 39.3919 28.6431 38.6461C27.8229 37.9003 27.3038 36.8794 27.1843 35.7768C27.0648 34.6743 27.3533 33.5667 27.9949 32.6642C28.6365 31.7616 29.5867 31.1267 30.6654 30.88C31.7441 30.6332 32.8763 30.7917 33.8473 31.3253C34.8183 31.859 35.5607 32.7307 35.9336 33.7753L35.9337 33.7753Z" fill="#F9F9F9"/>
<path d="M35.9339 33.7752C36.1765 34.4476 36.2546 35.1683 36.1616 35.8768C35.5458 36.6473 34.6952 37.1946 33.7393 37.4353C32.7835 37.676 31.7748 37.5969 30.867 37.21C29.9592 36.8231 29.2022 36.1496 28.7112 35.2923C28.2203 34.4349 28.0223 33.4407 28.1476 32.4611C28.6501 31.8324 29.3112 31.3498 30.0627 31.0629C30.8141 30.7761 31.6287 30.6955 32.4222 30.8294C33.2158 30.9633 33.9596 31.3069 34.5769 31.8248C35.1942 32.3426 35.6627 33.0159 35.9339 33.7752V33.7752Z" fill="#010002"/>
<path d="M27.8506 44.156C27.0184 44.5152 26.1184 44.6904 25.212 44.6696C24.3055 44.6487 23.4139 44.4324 22.5979 44.0352C21.9776 43.7274 21.1175 43.1083 20.3798 43.3118C20.1955 43.3582 20.0249 43.4478 19.882 43.5731C19.7391 43.6984 19.6278 43.8558 19.5574 44.0326C19.4869 44.2093 19.4593 44.4003 19.4767 44.59C19.4941 44.7796 19.5561 44.9625 19.6576 45.1237C20.7073 46.7496 22.347 48.4156 24.3923 48.5332C25.3811 48.5434 26.3567 48.3088 27.2325 47.8502C28.0594 47.4627 28.8442 46.9909 29.5744 46.4424C30.7259 45.5772 30.6327 43.4275 28.7875 43.7721C28.5174 43.8414 28.2574 43.9453 28.0139 44.0813C27.9599 44.107 27.9054 44.1319 27.8506 44.156Z" fill="#F9F9F9"/>
<path d="M33.1511 19.8923L33.1497 19.8885L29.0752 8.48608" stroke="#C7274C" stroke-width="2" stroke-miterlimit="10"/>
</svg>
